<svg id="Layer_1" data-name="Layer 1" xmlns="http://www.w3.org/2000/svg" viewBox="0 0 688 561"><title>Hurley size conv</title><path d="M139.11,519V418.12h12.76V460.4h46.89V418.12h12.91V519H198.76v-47.5H151.87V519Z" style="fill:#ff2826"/><path d="M211.67,521.47H198.76a2.5,2.5,0,0,1-2.5-2.5V474H154.37v45a2.5,2.5,0,0,1-2.5,2.5H139.11a2.5,2.5,0,0,1-2.5-2.5V418.12a2.5,2.5,0,0,1,2.5-2.5h12.76a2.5,2.5,0,0,1,2.5,2.5V457.9h41.89V418.12a2.5,2.5,0,0,1,2.5-2.5h12.91a2.5,2.5,0,0,1,2.5,2.5V519A2.5,2.5,0,0,1,211.67,521.47Zm-10.41-5h7.91V420.62h-7.91V460.4a2.5,2.5,0,0,1-2.5,2.5H151.87a2.5,2.5,0,0,1-2.5-2.5V420.62h-7.76v95.85h7.76v-45a2.5,2.5,0,0,1,2.5-2.5h46.89a2.5,2.5,0,0,1,2.5,2.5Z" style="fill:#ff2826"/><path d="M259.94,520.82q-12,0-17.45-7.38T237,491.61V444.26H249.8v45.66q0,10.6,3.3,15.29t10.69,4.69a18,18,0,0,0,10.3-3,48.08,48.08,0,0,0,9.83-9.6v-53h12.61V519H286.08L285,507.29h-.46a50,50,0,0,1-11,9.84A24.71,24.71,0,0,1,259.94,520.82Z" style="fill:#ff2826"/><path d="M259.94,523.32c-8.79,0-15.34-2.83-19.46-8.4-3.94-5.33-5.94-13.17-5.94-23.31V444.26a2.49,2.49,0,0,1,2.5-2.5H249.8a2.5,2.5,0,0,1,2.5,2.5v45.66c0,6.51.95,11.17,2.84,13.85,1.72,2.45,4.55,3.63,8.65,3.63a15.44,15.44,0,0,0,8.9-2.57,44.2,44.2,0,0,0,8.73-8.43V444.26a2.5,2.5,0,0,1,2.5-2.5h12.61a2.5,2.5,0,0,1,2.5,2.5V519a2.5,2.5,0,0,1-2.5,2.5H286.08a2.49,2.49,0,0,1-2.49-2.27l-.61-6.54a48.73,48.73,0,0,1-8.08,6.57A27.29,27.29,0,0,1,259.94,523.32Zm-20.4-76.56v44.85c0,9,1.67,15.89,5,20.34,3.17,4.29,8.22,6.37,15.44,6.37A22.33,22.33,0,0,0,272.2,515a47.44,47.44,0,0,0,10.43-9.35,2.52,2.52,0,0,1,1.91-.88H285a2.5,2.5,0,0,1,2.49,2.27l.87,9.41H294V446.76h-7.61V497.3a2.48,2.48,0,0,1-.56,1.58A50.31,50.31,0,0,1,275.48,509a20.56,20.56,0,0,1-11.69,3.42c-5.76,0-10.05-1.93-12.73-5.75-2.53-3.58-3.76-9.06-3.76-16.73V446.76Z" style="fill:#ff2826"/><path d="M321.74,519V444.26h10.45l1.08,13.53h.46a34.47,34.47,0,0,1,9.3-11.23A19.31,19.31,0,0,1,355,442.41a19.94,19.94,0,0,1,8,1.54L360.48,455a27.68,27.68,0,0,0-3.38-.92,19.7,19.7,0,0,0-3.84-.31q-4.77,0-9.92,3.84t-9,13.38v48Z" style="fill:#ff2826"/><path d="M334.35,521.47H321.74a2.5,2.5,0,0,1-2.5-2.5V444.26a2.5,2.5,0,0,1,2.5-2.5h10.45a2.51,2.51,0,0,1,2.5,2.3l.54,6.83a34.23,34.23,0,0,1,6.29-6.32A21.79,21.79,0,0,1,355,439.91a22.46,22.46,0,0,1,9,1.75,2.48,2.48,0,0,1,1.44,2.83l-2.46,11.07a2.45,2.45,0,0,1-1.21,1.63,2.5,2.5,0,0,1-2,.2,27.54,27.54,0,0,0-3.09-.84,17.71,17.71,0,0,0-3.34-.26c-2.61,0-5.45,1.13-8.43,3.35s-5.65,6.2-8,11.86V519A2.5,2.5,0,0,1,334.35,521.47Zm-10.11-5h7.61V471a2.53,2.53,0,0,1,.18-.94c2.76-6.84,6-11.57,9.81-14.44s7.7-4.34,11.42-4.34a22.33,22.33,0,0,1,4.33.36c.33.06.68.14,1,.23l1.4-6.31a18.56,18.56,0,0,0-5.07-.66,16.67,16.67,0,0,0-10.4,3.64A32.21,32.21,0,0,0,335.93,459a2.5,2.5,0,0,1-2.2,1.31h-.46a2.5,2.5,0,0,1-2.49-2.3l-.89-11.23h-5.65Z" style="fill:#ff2826"/><path d="M388.46,520.82q-7.23,0-10.3-4.31t-3.08-12.6V409.52h12.61v95.31c0,2.05.36,3.48,1.08,4.3a3.15,3.15,0,0,0,2.46,1.23h1.15a6.65,6.65,0,0,0,1.61-.3l1.69,9.53a11,11,0,0,1-2.92.92A25.23,25.23,0,0,1,388.46,520.82Z" style="fill:#ff2826"/><path d="M388.46,523.32c-5.65,0-9.8-1.8-12.34-5.35-2.38-3.34-3.54-7.93-3.54-14.06V409.52a2.49,2.49,0,0,1,2.5-2.5h12.61a2.49,2.49,0,0,1,2.5,2.5v95.31c0,2.11.44,2.63.46,2.66.32.37.5.37.58.37h1.15a4.85,4.85,0,0,0,.92-.21,2.53,2.53,0,0,1,2,.29,2.46,2.46,0,0,1,1.13,1.68l1.69,9.53a2.5,2.5,0,0,1-1.34,2.68,13.64,13.64,0,0,1-3.59,1.14A27.31,27.31,0,0,1,388.46,523.32ZM377.58,412v91.89c0,5,.88,8.73,2.61,11.15,1.57,2.19,4.27,3.26,8.27,3.26a22.29,22.29,0,0,0,3.86-.27l.53-.11-.9-5.08h-.72a5.65,5.65,0,0,1-4.35-2.08c-1.14-1.3-1.69-3.25-1.69-5.95V412Z" style="fill:#ff2826"/><path d="M444.57,520.82a36.69,36.69,0,0,1-14.07-2.69,33.31,33.31,0,0,1-11.37-7.69,35.45,35.45,0,0,1-7.61-12.22,49.87,49.87,0,0,1,.07-33,38.73,38.73,0,0,1,7.54-12.37,32.72,32.72,0,0,1,10.68-7.77,30.17,30.17,0,0,1,12.45-2.69A31.5,31.5,0,0,1,455,444.87a24.67,24.67,0,0,1,9.37,7.08A32.56,32.56,0,0,1,470.09,463a48.91,48.91,0,0,1,2,14.45c0,1.34,0,2.65-.08,3.92a19.27,19.27,0,0,1-.38,3.31H421.2q.76,12,7.46,19t17.45,7a29.51,29.51,0,0,0,9.91-1.61,44.43,44.43,0,0,0,8.69-4.23l4.46,8.3a64.15,64.15,0,0,1-10.92,5.38A37.87,37.87,0,0,1,444.57,520.82Zm-23.52-45.2h40q0-11.37-4.84-17.29t-13.61-5.92a19.3,19.3,0,0,0-7.61,1.53,20,20,0,0,0-6.53,4.54,24.8,24.8,0,0,0-4.85,7.3A33,33,0,0,0,421.05,475.62Z" style="fill:#ff2826"/><path d="M444.57,523.32a39.27,39.27,0,0,1-15-2.88,35.9,35.9,0,0,1-12.22-8.26,38.21,38.21,0,0,1-8.15-13.07,48.53,48.53,0,0,1-2.93-17.34,48,48,0,0,1,3-17.44,41.69,41.69,0,0,1,8-13.16,35.46,35.46,0,0,1,11.5-8.35,32.73,32.73,0,0,1,13.47-2.91A34,34,0,0,1,456,442.58a27.45,27.45,0,0,1,10.31,7.78,35.31,35.31,0,0,1,6.22,11.91,51.54,51.54,0,0,1,2.11,15.19c0,1.34,0,2.7-.08,4a22.22,22.22,0,0,1-.44,3.75,2.5,2.5,0,0,1-2.44,2H424c.81,6.12,3,11.07,6.51,14.76,4,4.19,9.12,6.22,15.65,6.22a26.88,26.88,0,0,0,9.07-1.47,40.8,40.8,0,0,0,8.19-4,2.51,2.51,0,0,1,3.54.94l4.46,8.3a2.5,2.5,0,0,1-.88,3.3,65.76,65.76,0,0,1-11.34,5.59A40.38,40.38,0,0,1,444.57,523.32Zm-2.31-78.41a27.81,27.81,0,0,0-11.43,2.48,30.3,30.3,0,0,0-9.87,7.17,36.56,36.56,0,0,0-7,11.59,47.41,47.41,0,0,0-.07,31.17,33.29,33.29,0,0,0,7.07,11.38,30.88,30.88,0,0,0,10.53,7.11,34.14,34.14,0,0,0,13.12,2.51,35.59,35.59,0,0,0,12.78-2.14,64.42,64.42,0,0,0,8.48-4l-2.09-3.9a47.06,47.06,0,0,1-6.88,3.1,31.94,31.94,0,0,1-10.75,1.76c-7.86,0-14.34-2.61-19.26-7.77s-7.6-12-8.14-20.55a2.48,2.48,0,0,1,.67-1.87,2.5,2.5,0,0,1,1.82-.79h48.26c0-.29,0-.59.05-.91.05-1.25.08-2.54.08-3.82a46.65,46.65,0,0,0-1.89-13.71,30.21,30.21,0,0,0-5.31-10.22,22.4,22.4,0,0,0-8.45-6.37A29,29,0,0,0,442.26,444.91ZM461,478.12h-40a2.51,2.51,0,0,1-2.49-2.78,35.85,35.85,0,0,1,2.74-10.58,27.4,27.4,0,0,1,5.34-8,22.67,22.67,0,0,1,7.34-5.09,21.86,21.86,0,0,1,8.59-1.73c6.6,0,11.83,2.3,15.54,6.83s5.41,10.74,5.41,18.88A2.5,2.5,0,0,1,461,478.12Zm-37.08-5h34.51c-.31-5.73-1.72-10.17-4.21-13.21-2.75-3.37-6.57-5-11.67-5a17,17,0,0,0-6.63,1.33,17.75,17.75,0,0,0-5.72,4,22.44,22.44,0,0,0-4.35,6.58A28.34,28.34,0,0,0,423.94,473.12Z" style="fill:#ff2826"/><path d="M492.53,551.1a28,28,0,0,1-4.77-.38,19.49,19.49,0,0,1-4-1.15l2.46-10,2.76.69a11.93,11.93,0,0,0,2.92.39,13.47,13.47,0,0,0,10.53-4.54,31.85,31.85,0,0,0,6.38-11.45l1.7-5.53-30-74.87h13.07l15.21,41.35q1.69,4.92,3.62,10.38t3.61,10.68h.62q1.68-5.07,3.22-10.6T523,485.61l13.37-41.35h12.3l-28.13,80.86a86.25,86.25,0,0,1-4.46,10.3,34.08,34.08,0,0,1-5.84,8.23,26.1,26.1,0,0,1-7.69,5.45A23.38,23.38,0,0,1,492.53,551.1Z" style="fill:#ff2826"/><path d="M492.53,553.6a30,30,0,0,1-5.2-.42,21.6,21.6,0,0,1-4.52-1.31,2.49,2.49,0,0,1-1.47-2.9l2.46-10a2.5,2.5,0,0,1,1.14-1.54,2.46,2.46,0,0,1,1.89-.28l2.77.69a9.88,9.88,0,0,0,2.31.31,11,11,0,0,0,8.68-3.71,29.74,29.74,0,0,0,5.86-10.57l1.42-4.63-29.65-74.05a2.5,2.5,0,0,1,2.32-3.43h13.07A2.49,2.49,0,0,1,496,443.4l15.22,41.35c1.14,3.33,2.34,6.78,3.62,10.41.52,1.45,1,2.9,1.51,4.35.4-1.35.8-2.72,1.18-4.11,1-3.67,2.06-7.21,3.1-10.53L534,443.49a2.51,2.51,0,0,1,2.38-1.73h12.3a2.49,2.49,0,0,1,2.36,3.32l-28.13,80.86a88.74,88.74,0,0,1-4.6,10.63,36.82,36.82,0,0,1-6.27,8.82,28.44,28.44,0,0,1-8.42,6A26.14,26.14,0,0,1,492.53,553.6Zm-5.79-5.67c.48.13,1,.24,1.47.33a24.75,24.75,0,0,0,4.32.34,21.19,21.19,0,0,0,8.94-1.76,23.59,23.59,0,0,0,6.95-4.94,31.55,31.55,0,0,0,5.41-7.63,85.2,85.2,0,0,0,4.33-10l27-77.51h-7l-12.81,39.62c-1,3.25-2,6.74-3.05,10.35s-2.13,7.34-3.26,10.73a2.49,2.49,0,0,1-2.37,1.71h-.62a2.5,2.5,0,0,1-2.38-1.73c-1.13-3.48-2.34-7.06-3.59-10.62s-2.49-7.11-3.62-10.39l-14.6-39.67h-7.63l28.61,71.44a2.55,2.55,0,0,1,.07,1.66l-1.69,5.53a34.92,34.92,0,0,1-6.91,12.39,16,16,0,0,1-12.4,5.37,14.81,14.81,0,0,1-3.52-.46l-.34-.08Z" style="fill:#ff2826"/><path d="M342.5,203.87a8,8,0,0,1-4-1.07l-14.77-8.53a8,8,0,0,1,8-13.84l10.77,6.22,10.77-6.22a8,8,0,1,1,8,13.84L346.5,202.8A8,8,0,0,1,342.5,203.87Z" style="fill:#ff2826"/><path d="M280.64,168.16a7.94,7.94,0,0,1-4-1.07L245.27,149a8,8,0,0,1,8-13.85l31.39,18.12a8,8,0,0,1-4,14.92Z" style="fill:#ff2826"/><path d="M202.17,122.86a8,8,0,0,1-4-1.07l-14.76-8.53a8,8,0,0,1,0-13.85l14.76-8.52a8,8,0,1,1,8,13.84l-2.78,1.61,2.78,1.6a8,8,0,0,1-4,14.92Z" style="fill:#ff2826"/><path d="M249.27,78.62a8,8,0,0,1-4-14.92l31.38-18.12a8,8,0,0,1,8,13.85L253.26,77.55A7.92,7.92,0,0,1,249.27,78.62Z" style="fill:#ff2826"/><path d="M357.26,33.32a8,8,0,0,1-4-1.07L342.5,26l-10.77,6.22a8,8,0,0,1-8-13.85L338.5,9.87a8,8,0,0,1,8,0l14.77,8.53a8,8,0,0,1-4,14.92Z" style="fill:#ff2826"/><path d="M435.73,78.62a7.92,7.92,0,0,1-4-1.07L400.35,59.43a8,8,0,0,1,8-13.85L439.73,63.7a8,8,0,0,1-4,14.92Z" style="fill:#ff2826"/><path d="M482.83,122.86a8,8,0,0,1-4-14.92l2.78-1.6-2.78-1.61a8,8,0,1,1,8-13.84l14.76,8.52a8,8,0,0,1,0,13.85l-14.76,8.53A8,8,0,0,1,482.83,122.86Z" style="fill:#ff2826"/><path d="M404.36,168.16a8,8,0,0,1-4-14.92l31.39-18.12a8,8,0,1,1,8,13.85l-31.38,18.12A7.94,7.94,0,0,1,404.36,168.16Z" style="fill:#ff2826"/><polygon points="342.57 374.53 187.81 285.18 187.81 106.48 342.57 195.83 342.57 374.53" style="fill:#ff2826"/><path d="M342.57,382.52a7.88,7.88,0,0,1-4-1.07L183.82,292.1a8,8,0,0,1-4-6.92V106.48a8,8,0,0,1,12-6.93l154.76,89.36a8,8,0,0,1,4,6.92v178.7a8,8,0,0,1-8,8Zm-146.76-102,138.77,80.12V200.44L195.81,120.32Z" style="fill:#ff2826"/><path d="M342.74,382.81a8,8,0,0,1-4-1.07L324,373.21a8,8,0,1,1,8-13.85l2.78,1.61v-3.21a8,8,0,1,1,16,0v17.05a8,8,0,0,1-8,8Z" style="fill:#ff2826"/><path d="M280.88,347.1a8,8,0,0,1-4-1.07L245.5,327.91a8,8,0,0,1,8-13.85l31.38,18.12a8,8,0,0,1-4,14.92Z" style="fill:#ff2826"/><path d="M202.41,301.8a7.93,7.93,0,0,1-4-1.08l-14.77-8.52a8,8,0,0,1-4-6.93v-17a8,8,0,1,1,16,0v12.44l10.77,6.22a8,8,0,0,1-4,14.92Z" style="fill:#ff2826"/><path d="M187.65,221.85a8,8,0,0,1-8-8V177.61a8,8,0,0,1,16,0v36.25A8,8,0,0,1,187.65,221.85Z" style="fill:#ff2826"/><path d="M187.65,131.24a8,8,0,0,1-8-8V106.19a8,8,0,0,1,12-6.92l14.76,8.53a8,8,0,1,1-8,13.84l-2.78-1.6v3.21A8,8,0,0,1,187.65,131.24Z" style="fill:#ff2826"/><path d="M280.88,168a8,8,0,0,1-4-1.07L245.5,148.83a8,8,0,0,1,8-13.85l31.38,18.12a8,8,0,0,1-4,14.92Z" style="fill:#ff2826"/><path d="M342.74,220.78a8,8,0,0,1-8-8V200.35L324,194.13a8,8,0,0,1,8-13.85l14.77,8.53a8,8,0,0,1,4,6.92v17.06A8,8,0,0,1,342.74,220.78Z" style="fill:#ff2826"/><path d="M342.74,311.39a8,8,0,0,1-8-8V267.15a8,8,0,0,1,16,0V303.4A8,8,0,0,1,342.74,311.39Z" style="fill:#ff2826"/><path d="M482.59,302a8,8,0,0,1-4-14.92l10.77-6.22V268.41a8,8,0,0,1,16,0v17.06a8,8,0,0,1-4,6.92l-14.77,8.53A8,8,0,0,1,482.59,302Z" style="fill:#ff2826"/><path d="M404.12,347.29a8,8,0,0,1-4-14.92l31.38-18.12a8,8,0,0,1,8,13.85l-31.39,18.12A7.92,7.92,0,0,1,404.12,347.29Z" style="fill:#ff2826"/><path d="M342.26,383a8,8,0,0,1-8-8V358a8,8,0,0,1,16,0v3.21l2.78-1.6a8,8,0,1,1,8,13.84l-14.77,8.53A8,8,0,0,1,342.26,383Z" style="fill:#ff2826"/><path d="M342.26,311.58a8,8,0,0,1-8-8V267.35a8,8,0,1,1,16,0v36.24A8,8,0,0,1,342.26,311.58Z" style="fill:#ff2826"/><path d="M342.26,221a8,8,0,0,1-8-8v-17a8,8,0,0,1,4-6.93L353,180.48a8,8,0,1,1,8,13.84l-10.77,6.22V213A8,8,0,0,1,342.26,221Z" style="fill:#ff2826"/><path d="M404.12,168.21a8,8,0,0,1-4-14.92l31.38-18.12a8,8,0,0,1,8,13.85l-31.39,18.12A7.92,7.92,0,0,1,404.12,168.21Z" style="fill:#ff2826"/><path d="M497.35,131.44a8,8,0,0,1-8-8v-3.21l-2.78,1.61a8,8,0,0,1-8-13.85l14.76-8.53a8,8,0,0,1,12,6.93v17A8,8,0,0,1,497.35,131.44Z" style="fill:#ff2826"/><path d="M497.35,222a8,8,0,0,1-8-8V177.81a8,8,0,1,1,16,0v36.24A8,8,0,0,1,497.35,222Z" style="fill:#ff2826"/></svg>