<svg id="Layer_1" data-name="Layer 1" xmlns="http://www.w3.org/2000/svg" viewBox="0 0 4385 980"><title>Artboard 13</title><polygon points="703.28 820.41 299.72 587.41 299.72 434.41 703.28 667.41 703.28 820.41" style="fill:#073fef;stroke:#073fef;stroke-linecap:round;stroke-linejoin:round;stroke-width:3px"/><polygon points="703.37 667.44 703.37 821.43 453.63 965.63 453.63 811.63 703.37 667.44" style="fill:#073fef;stroke:#073fef;stroke-linecap:round;stroke-linejoin:round;stroke-width:3px"/><polygon points="299.37 434.44 299.37 588.43 49.63 732.63 49.63 578.63 299.37 434.44" style="fill:#073fef;stroke:#073fef;stroke-linecap:round;stroke-linejoin:round;stroke-width:3px"/><polygon points="453.28 965.41 49.72 732.41 49.72 579.41 453.28 812.41 453.28 965.41" style="fill:#073fef;stroke:#073fef;stroke-linecap:round;stroke-linejoin:round;stroke-width:3px"/><polygon points="703.28 614.41 299.72 381.41 299.72 228.41 703.28 461.41 703.28 614.41" style="fill:#1566e8;stroke:#1566e8;stroke-linecap:round;stroke-linejoin:round;stroke-width:3px"/><polygon points="703.37 461.44 703.37 615.43 453.63 759.63 453.63 605.63 703.37 461.44" style="fill:#1566e8;stroke:#1566e8;stroke-linecap:round;stroke-linejoin:round;stroke-width:3px"/><polygon points="299.37 228.44 299.37 382.44 49.63 526.63 49.63 372.63 299.37 228.44" style="fill:#1566e8;stroke:#1566e8;stroke-linecap:round;stroke-linejoin:round;stroke-width:3px"/><polygon points="453.28 759.41 49.72 526.41 49.72 373.41 453.28 606.41 453.28 759.41" style="fill:#1566e8;stroke:#1566e8;stroke-linecap:round;stroke-linejoin:round;stroke-width:3px"/><polygon points="703.28 410.41 299.72 177.41 299.72 24.41 703.28 257.41 703.28 410.41" style="fill:#0a71ed;stroke:#0a71ed;stroke-linecap:round;stroke-linejoin:round;stroke-width:3px"/><polygon points="703.37 257.44 703.37 411.44 453.63 555.63 453.63 401.63 703.37 257.44" style="fill:#0a71ed;stroke:#0a71ed;stroke-linecap:round;stroke-linejoin:round;stroke-width:3px"/><polygon points="299.37 24.44 299.37 178.44 49.63 322.63 49.63 168.63 299.37 24.44" style="fill:#0a71ed;stroke:#0a71ed;stroke-linecap:round;stroke-linejoin:round;stroke-width:3px"/><polygon points="453.28 555.41 49.72 322.41 49.72 169.41 453.28 402.41 453.28 555.41" style="fill:#0a71ed;stroke:#0a71ed;stroke-linecap:round;stroke-linejoin:round;stroke-width:3px"/><text transform="translate(821.89 696.09)" style="font-size:539.504150390625px;stroke:#000;stroke-miterlimit:10;stroke-width:21px;font-family:Helvetica-Bold, Helvetica;font-weight:700;letter-spacing:0.01999991854499642em">CONVEC<tspan x="2372.91" y="0" style="letter-spacing:0.002421928773029705em">T</tspan><tspan x="2703.77" y="0">OR</tspan></text></svg>