<svg id="Layer_1" data-name="Layer 1" xmlns="http://www.w3.org/2000/svg" viewBox="0 0 2151 387"><title>ConvectorSuite</title><polygon points="273.99 322.42 233.71 299.16 193.43 275.9 153.14 252.65 112.86 229.39 112.86 214.12 112.86 198.84 112.86 183.57 112.86 168.3 153.14 191.56 193.43 214.82 233.71 238.07 273.99 261.33 273.99 276.6 273.99 291.88 273.99 307.15 273.99 322.42" style="fill:#073fef"/><path d="M274,323h-.15l-.08,0-.07,0-40.28-23.26-40.28-23.26-40.29-23.25-40.28-23.26-.13-.1-.09-.12a.42.42,0,0,1-.06-.14,1,1,0,0,1,0-.16V168.3a.88.88,0,0,1,0-.16.42.42,0,0,1,.06-.14l.09-.12.13-.1.14-.06.16,0,.15,0,.15.06L153.44,191l40.28,23.26L234,237.55l40.28,23.26.13.1.09.12a.42.42,0,0,1,.06.14,1,1,0,0,1,0,.16v61.09a.88.88,0,0,1,0,.16.42.42,0,0,1-.06.14l-.09.12-.13.1-.07,0-.07,0H274ZM113.46,229l40,23.09,40,23.08,40,23.09,40,23.08v-59.7l-40-23.09-40-23.08-40-23.09-40-23.08V229Z" style="fill:#073fef"/><polygon points="274.03 261.34 274.03 276.71 274.03 292.08 274.03 307.46 274.03 322.83 249.1 337.22 224.17 351.62 199.24 366.01 174.31 380.4 174.31 365.03 174.31 349.66 174.31 334.29 174.31 318.91 199.24 304.52 224.17 290.13 249.1 275.73 274.03 261.34" style="fill:#0a71ed"/><path d="M174.31,381h-.15l-.08,0-.07,0a.86.86,0,0,1-.22-.22l-.06-.14a.88.88,0,0,1,0-.16V318.91a.77.77,0,0,1,0-.15l.06-.15.1-.12a.4.4,0,0,1,.12-.1L198.94,304l24.93-14.39,24.93-14.39,24.93-14.4.14-.06.16,0,.15,0,.15.06a.58.58,0,0,1,.12.1l.1.12.06.15a.77.77,0,0,1,0,.15v61.49a.88.88,0,0,1,0,.16l-.06.14-.1.12a.58.58,0,0,1-.12.1L249.4,337.74l-24.93,14.39-24.93,14.4-24.93,14.39-.07,0-.08,0h-.15Zm.6-61.74v60.1l24.63-14.22,24.63-14.22L248.8,336.7l24.63-14.22v-60.1L248.8,276.6l-24.63,14.22L199.54,305Z" style="fill:#0a71ed"/><polygon points="112.72 168.31 112.72 183.68 112.72 199.06 112.72 214.43 112.72 229.8 87.79 244.19 62.86 258.58 37.93 272.98 13 287.37 13 272 13 256.63 13 241.25 13 225.88 37.93 211.49 62.86 197.1 87.79 182.7 112.72 168.31" style="fill:#073fef"/><path d="M13,288h-.15l-.07,0-.08,0-.12-.1a.34.34,0,0,1-.09-.12.35.35,0,0,1-.06-.14.44.44,0,0,1,0-.16V225.88a.39.39,0,0,1,0-.15.59.59,0,0,1,.15-.27l.12-.1L37.63,211l24.93-14.39,24.93-14.39,24.93-14.4.15-.06.15,0,.16,0,.14.06.13.1.09.12a.42.42,0,0,1,.06.14,1,1,0,0,1,0,.16V229.8a.77.77,0,0,1,0,.15.39.39,0,0,1-.06.15l-.09.12-.13.1L88.09,244.71,63.16,259.1,38.23,273.5,13.3,287.89l-.07,0-.07,0H13Zm.6-61.74v60.1l24.63-14.22,24.63-14.22,24.63-14.22,24.63-14.22v-60.1L87.49,183.57,62.86,197.79,38.23,212Z" style="fill:#073fef"/><polygon points="174.17 380.31 133.89 357.06 93.61 333.8 53.32 310.54 13.04 287.28 13.04 272.01 13.04 256.74 13.04 241.47 13.04 226.19 53.32 249.45 93.61 272.71 133.89 295.97 174.17 319.23 174.17 334.5 174.17 349.77 174.17 365.04 174.17 380.31" style="fill:#1566e8"/><path d="M174.17,380.91h-.07l-.08,0-.07,0-.08,0-40.28-23.26L93.31,334.32,53,311.06,12.74,287.8a.38.38,0,0,1-.12-.09.64.64,0,0,1-.1-.13l-.06-.14a.78.78,0,0,1,0-.16V226.2a.78.78,0,0,1,0-.16l.06-.14a.64.64,0,0,1,.1-.13.38.38,0,0,1,.12-.09.47.47,0,0,1,.15-.06.57.57,0,0,1,.3,0,.47.47,0,0,1,.15.06l40.28,23.25,40.29,23.26,40.28,23.26,40.28,23.26a.44.44,0,0,1,.22.22.35.35,0,0,1,.06.14.41.41,0,0,1,0,.16v61.08a.41.41,0,0,1,0,.16.35.35,0,0,1-.06.14.44.44,0,0,1-.22.22l-.07,0-.07,0-.08,0Zm-160.53-94,40,23.08,40,23.09,40,23.08,40,23.09V319.57l-40-23.08-40-23.09-40-23.08-40-23.09v59.71Z" style="fill:#1566e8"/><polygon points="273.99 240.17 233.71 216.91 193.43 193.65 153.14 170.4 112.86 147.14 112.86 131.87 112.86 116.59 112.86 101.32 112.86 86.05 153.14 109.31 193.43 132.57 233.71 155.82 273.99 179.08 273.99 194.35 273.99 209.63 273.99 224.9 273.99 240.17" style="fill:#073fef"/><path d="M274,240.77h-.15l-.08,0-.07,0-40.28-23.26-40.28-23.26-40.29-23.26-40.28-23.25-.13-.1-.09-.12a.42.42,0,0,1-.06-.14,1,1,0,0,1,0-.16V86.05a.88.88,0,0,1,0-.16.42.42,0,0,1,.06-.14,1.25,1.25,0,0,1,.09-.12l.13-.1.14-.06.16,0,.15,0,.15.06,40.28,23.26,40.28,23.26L234,155.3l40.28,23.26.13.1.09.12a.42.42,0,0,1,.06.14.88.88,0,0,1,0,.16v61.09a.88.88,0,0,1,0,.16.42.42,0,0,1-.06.14l-.09.12-.13.1-.07,0-.07,0H274Zm-160.53-94,40,23.09,40,23.08,40,23.09,40,23.08v-59.7l-40-23.09-40-23.08-40-23.09-40-23.08v59.7Z" style="fill:#073fef"/><polygon points="112.72 86.06 112.72 101.43 112.72 116.81 112.72 132.18 112.72 147.55 87.79 161.94 62.86 176.33 37.93 190.73 13 205.12 13 189.75 13 174.38 13 159 13 143.63 37.93 129.24 62.86 114.85 87.79 100.45 112.72 86.06" style="fill:#073fef"/><path d="M13,205.72h-.15l-.07,0-.08,0-.12-.1a.34.34,0,0,1-.09-.12.35.35,0,0,1-.06-.14.44.44,0,0,1,0-.16V143.63a.39.39,0,0,1,0-.15.59.59,0,0,1,.15-.27l.12-.1,24.93-14.39,24.93-14.39L87.49,99.94l24.93-14.4.15-.06.15,0,.16,0,.14.06.13.1.09.12a.42.42,0,0,1,.06.14,1,1,0,0,1,0,.16v61.49a.77.77,0,0,1,0,.15.39.39,0,0,1-.06.15l-.09.12-.13.1L88.09,162.46,63.16,176.85l-24.93,14.4L13.3,205.64l-.07,0-.07,0H13ZM13.6,144v60.1l24.63-14.22,24.63-14.22,24.63-14.22,24.63-14.22V87.1L87.49,101.32,62.86,115.54,38.23,129.76Z" style="fill:#073fef"/><polygon points="174.17 298.06 133.89 274.81 93.61 251.55 53.32 228.29 13.04 205.03 13.04 189.76 13.04 174.49 13.04 159.22 13.04 143.94 53.32 167.2 93.61 190.46 133.89 213.72 174.17 236.97 174.17 252.25 174.17 267.52 174.17 282.79 174.17 298.06" style="fill:#1566e8"/><path d="M174.17,298.66h-.07l-.08,0-.07,0-.08,0-40.28-23.26L93.31,252.07,53,228.81,12.74,205.55a.38.38,0,0,1-.12-.09.64.64,0,0,1-.1-.13l-.06-.14a.78.78,0,0,1,0-.16V144a.78.78,0,0,1,0-.16l.06-.14a.64.64,0,0,1,.1-.13.38.38,0,0,1,.12-.09.47.47,0,0,1,.15-.06.57.57,0,0,1,.3,0,.47.47,0,0,1,.15.06l40.28,23.25,40.29,23.26,40.28,23.26,40.28,23.26a.44.44,0,0,1,.22.22.35.35,0,0,1,.06.14.41.41,0,0,1,0,.16v61.08a.41.41,0,0,1,0,.16.35.35,0,0,1-.06.14.44.44,0,0,1-.22.22l-.07,0-.07,0-.08,0Zm-160.53-94,40,23.08,40,23.09,40,23.08,40,23.09V237.32l-40-23.08-40-23.09-40-23.08L13.64,145v59.71Z" style="fill:#1566e8"/><polygon points="274.03 179.09 274.03 194.46 274.03 209.84 274.03 225.21 274.03 240.58 249.1 254.97 224.17 269.37 199.24 283.76 174.31 298.15 174.31 282.78 174.31 267.41 174.31 252.03 174.31 236.66 199.24 222.27 224.17 207.88 249.1 193.48 274.03 179.09" style="fill:#0a71ed"/><path d="M174.31,298.75h-.15l-.08,0-.07,0a.86.86,0,0,1-.22-.22l-.06-.14a.88.88,0,0,1,0-.16V236.66a.77.77,0,0,1,0-.15l.06-.15.1-.12a.4.4,0,0,1,.12-.1l24.93-14.39,24.93-14.39L248.8,193l24.93-14.4.14-.06.16,0,.15,0,.15.06a.58.58,0,0,1,.12.1l.1.12.06.15a.77.77,0,0,1,0,.15v61.49a.88.88,0,0,1,0,.16l-.06.14-.1.12a.58.58,0,0,1-.12.1L249.4,255.49l-24.93,14.39-24.93,14.4-24.93,14.39-.07,0-.08,0h-.15Zm.6-61.74v60.1l24.63-14.22,24.63-14.22,24.63-14.22,24.63-14.22v-60.1L248.8,194.35l-24.63,14.22-24.63,14.22Z" style="fill:#0a71ed"/><polygon points="273.99 158.72 233.71 135.46 193.43 112.2 153.14 88.94 112.86 65.69 112.86 50.41 112.86 35.14 112.86 19.87 112.86 4.6 153.14 27.86 193.43 51.11 233.71 74.37 273.99 97.63 273.99 112.9 273.99 128.17 273.99 143.45 273.99 158.72" style="fill:#073fef"/><path d="M274,159.32h-.15l-.08,0-.07,0L233.41,136l-40.28-23.26L152.84,89.46,112.56,66.21l-.13-.1-.09-.12a.47.47,0,0,1-.06-.15.77.77,0,0,1,0-.15V4.6a.88.88,0,0,1,0-.16.35.35,0,0,1,.06-.14l.09-.12.13-.1A.42.42,0,0,1,112.7,4l.16,0L113,4l.15.06,40.28,23.26L193.72,50.6,234,73.85l40.28,23.26.13.1.09.12a.35.35,0,0,1,.06.14.88.88,0,0,1,0,.16v61.09a.77.77,0,0,1,0,.15.47.47,0,0,1-.06.15l-.09.12-.13.1-.07,0-.07,0H274Zm-160.53-94,40,23.09,40,23.08,40,23.09,40,23.08V98l-40-23.09-40-23.08-40-23.09-40-23.08v59.7Z" style="fill:#073fef"/><polygon points="274.03 97.64 274.03 113.01 274.03 128.38 274.03 143.76 274.03 159.13 249.1 173.52 224.17 187.91 199.24 202.31 174.31 216.7 174.31 201.33 174.31 185.96 174.31 170.58 174.31 155.21 199.24 140.82 224.17 126.43 249.1 112.03 274.03 97.64" style="fill:#0a71ed"/><path d="M174.31,217.3h-.15l-.08,0-.07,0a.4.4,0,0,1-.12-.1.58.58,0,0,1-.1-.12l-.06-.14a.88.88,0,0,1,0-.16V155.21a.77.77,0,0,1,0-.15l.06-.15.1-.12a.4.4,0,0,1,.12-.1l24.93-14.39,24.93-14.39,24.93-14.4,24.93-14.39a.35.35,0,0,1,.14-.06l.16,0,.15,0a.47.47,0,0,1,.15.06.86.86,0,0,1,.22.22l.06.14a.88.88,0,0,1,0,.16v61.49a.77.77,0,0,1,0,.15l-.06.15-.1.12a.58.58,0,0,1-.12.1L249.4,174l-24.93,14.39-24.93,14.4-24.93,14.39-.07,0-.08,0h-.15Zm.6-61.74v60.1l24.63-14.22,24.63-14.22L248.8,173l24.63-14.22V98.68L248.8,112.9l-24.63,14.22-24.63,14.22Z" style="fill:#0a71ed"/><polygon points="112.72 4.61 112.72 19.98 112.72 35.35 112.72 50.73 112.72 66.1 87.79 80.49 62.86 94.88 37.93 109.28 13 123.67 13 108.3 13 92.92 13 77.55 13 62.18 37.93 47.79 62.86 33.4 87.79 19 112.72 4.61" style="fill:#073fef"/><path d="M13,124.27h-.15l-.07,0-.08,0-.12-.1a.47.47,0,0,1-.09-.12.42.42,0,0,1-.06-.14.47.47,0,0,1,0-.16V62.18a.39.39,0,0,1,0-.15.39.39,0,0,1,.06-.15.47.47,0,0,1,.09-.12l.12-.1L37.63,47.27,62.56,32.88l24.93-14.4L112.42,4.09a.47.47,0,0,1,.15-.06l.15,0,.16,0a.35.35,0,0,1,.14.06l.13.1a1.25,1.25,0,0,1,.09.12.35.35,0,0,1,.06.14.88.88,0,0,1,0,.16V66.1a.77.77,0,0,1,0,.15.47.47,0,0,1-.06.15l-.09.12-.13.1L88.09,81,63.16,95.4,38.23,109.79,13.3,124.19l-.07,0-.07,0H13Zm.6-61.74v60.1l24.63-14.22L62.86,94.19,87.49,80l24.63-14.22V5.65L87.49,19.87,62.86,34.09,38.23,48.31Z" style="fill:#073fef"/><polygon points="174.17 216.61 133.89 193.35 93.61 170.1 53.32 146.84 13.04 123.58 13.04 108.31 13.04 93.04 13.04 77.77 13.04 62.49 53.32 85.75 93.61 109.01 133.89 132.27 174.17 155.52 174.17 170.8 174.17 186.07 174.17 201.34 174.17 216.61" style="fill:#1566e8"/><path d="M174.17,217.21h-.07l-.08,0-.07,0-.08,0-40.28-23.26L93.31,170.62,53,147.36,12.74,124.1a.86.86,0,0,1-.22-.22l-.06-.14a.78.78,0,0,1,0-.16V62.49a.77.77,0,0,1,0-.15l.06-.15.1-.12a.4.4,0,0,1,.12-.1l.15-.06.15,0,.15,0,.15.06L53.62,85.23l40.29,23.26,40.28,23.26L174.47,155a.38.38,0,0,1,.13.09.94.94,0,0,1,.09.12.47.47,0,0,1,.06.15.39.39,0,0,1,0,.15v61.09a.41.41,0,0,1,0,.16.35.35,0,0,1-.06.14.38.38,0,0,1-.09.12l-.13.1-.07,0-.07,0-.08,0Zm-160.53-94,40,23.08,40,23.09,40,23.08,40,23.08v-59.7l-40-23.08-40-23.09-40-23.08-40-23.09v59.71Z" style="fill:#1566e8"/><path d="M428.15,299.48A81.2,81.2,0,0,1,412,297.91a71,71,0,0,1-28.06-12.34,73.18,73.18,0,0,1-11.39-10.44,76,76,0,0,1-9.32-13.2,94.27,94.27,0,0,1-7-15.92,106,106,0,0,1-4.39-18.4A138.51,138.51,0,0,1,350.34,207a134.37,134.37,0,0,1,1.49-20.41,103.84,103.84,0,0,1,4.49-18.23,95.53,95.53,0,0,1,7.15-15.84,77.8,77.8,0,0,1,9.45-13.27,73.86,73.86,0,0,1,11.56-10.58,72.45,72.45,0,0,1,28.57-12.58,82.43,82.43,0,0,1,16.46-1.6,67.66,67.66,0,0,1,15.34,1.67,53.28,53.28,0,0,1,13.37,5,86.21,86.21,0,0,1,11.26,7.17,66.78,66.78,0,0,1,9,8.2l-6.12,7.35-6.12,7.34a59.54,59.54,0,0,0-7.56-6.87,56.37,56.37,0,0,0-8.5-5.37,40.31,40.31,0,0,0-9.59-3.47,48.81,48.81,0,0,0-10.81-1.16,57,57,0,0,0-12.18,1.26,48.55,48.55,0,0,0-10.95,3.78,49.12,49.12,0,0,0-9.59,6.12,51.83,51.83,0,0,0-8.1,8.3,60.62,60.62,0,0,0-6.49,10.37,76.31,76.31,0,0,0-4.8,12.34,93.51,93.51,0,0,0-3,14.16,121.92,121.92,0,0,0-1,15.77,125.55,125.55,0,0,0,1,16,94.89,94.89,0,0,0,3,14.32,82.53,82.53,0,0,0,4.73,12.48,62.73,62.73,0,0,0,6.29,10.51,50.65,50.65,0,0,0,7.86,8.44,48.21,48.21,0,0,0,9.42,6.26,46.52,46.52,0,0,0,10.85,3.87,57.16,57.16,0,0,0,24.38,0,42.1,42.1,0,0,0,10.62-4,64.7,64.7,0,0,0,9.52-6.36,80.3,80.3,0,0,0,9-8.47l6.26,7.08,6.25,7.07a84.26,84.26,0,0,1-11.29,10.88,75.13,75.13,0,0,1-12.65,8.17,60.64,60.64,0,0,1-14.35,5.1A76.06,76.06,0,0,1,428.15,299.48Z" style="fill:#232a30"/><path d="M428.15,303.9a86.85,86.85,0,0,1-17.1-1.66,75.15,75.15,0,0,1-29.75-13.1,77.09,77.09,0,0,1-12.1-11.08,80,80,0,0,1-9.83-13.92A98,98,0,0,1,352,247.43a110.9,110.9,0,0,1-4.56-19.1A144.49,144.49,0,0,1,345.91,207a137.78,137.78,0,0,1,1.57-21.14,107.29,107.29,0,0,1,4.67-19,99,99,0,0,1,7.5-16.61,83,83,0,0,1,10-14,77.27,77.27,0,0,1,12.27-11.21,75.88,75.88,0,0,1,14.28-8.27,77.1,77.1,0,0,1,16-5.07A86.65,86.65,0,0,1,429.51,110a72.23,72.23,0,0,1,16.42,1.81,58.12,58.12,0,0,1,14.39,5.39,90.54,90.54,0,0,1,11.88,7.59,70.72,70.72,0,0,1,9.57,8.71,4.43,4.43,0,0,1,.12,5.8l-6.12,7.35L469.64,154a4.29,4.29,0,0,1-1.46,1.15,4.35,4.35,0,0,1-1.81.44,4.1,4.1,0,0,1-1.83-.32A4.57,4.57,0,0,1,463,154.2a55.77,55.77,0,0,0-7-6.35,52.72,52.72,0,0,0-7.85-5,36,36,0,0,0-8.61-3.09,43.86,43.86,0,0,0-9.76-1,52.51,52.51,0,0,0-11.18,1.15,44.29,44.29,0,0,0-10,3.43,45.34,45.34,0,0,0-8.75,5.6,48.2,48.2,0,0,0-7.39,7.57,56,56,0,0,0-6,9.68,71.35,71.35,0,0,0-4.48,11.57,88.12,88.12,0,0,0-2.82,13.53,116.27,116.27,0,0,0-.95,15.14,120.14,120.14,0,0,0,.95,15.4,89.88,89.88,0,0,0,2.82,13.7,78.11,78.11,0,0,0,4.44,11.75,59.41,59.41,0,0,0,5.88,9.84,46.48,46.48,0,0,0,7.16,7.69,43.46,43.46,0,0,0,8.57,5.7,42.14,42.14,0,0,0,9.88,3.51A50.53,50.53,0,0,0,429,275.19a49.5,49.5,0,0,0,11.15-1.2,37.82,37.82,0,0,0,9.6-3.57,59.59,59.59,0,0,0,8.9-6,76.24,76.24,0,0,0,8.44-8,4.36,4.36,0,0,1,3.27-1.44h0a4.36,4.36,0,0,1,3.28,1.49l6.26,7.07,6.26,7.08a4.43,4.43,0,0,1,0,5.83A88.6,88.6,0,0,1,474.27,288a79.42,79.42,0,0,1-13.36,8.63,64.05,64.05,0,0,1-15.34,5.45A80,80,0,0,1,428.15,303.9Zm1.36-185A77.91,77.91,0,0,0,414,120.4a67.79,67.79,0,0,0-26.88,11.82,68.87,68.87,0,0,0-10.87,9.94,74.11,74.11,0,0,0-9,12.58,91.51,91.51,0,0,0-6.78,15,99.1,99.1,0,0,0-4.3,17.52A130.12,130.12,0,0,0,354.76,207a136.39,136.39,0,0,0,1.41,19.93,102.62,102.62,0,0,0,4.21,17.69A89.57,89.57,0,0,0,367,259.7a71.73,71.73,0,0,0,8.81,12.49,68.12,68.12,0,0,0,10.69,9.8,65.18,65.18,0,0,0,12.41,7.18,67.7,67.7,0,0,0,13.95,4.41,77.55,77.55,0,0,0,15.27,1.47,71.74,71.74,0,0,0,15.35-1.58,55.76,55.76,0,0,0,13.39-4.74,69.45,69.45,0,0,0,10.47-6.58,76.36,76.36,0,0,0,9.54-8.56l-3.35-3.79-3.36-3.8a80.43,80.43,0,0,1-7.93,6.84,66.31,66.31,0,0,1-8.33,5.36,46.32,46.32,0,0,1-11.63,4.37A58.24,58.24,0,0,1,429,284a59.34,59.34,0,0,1-13.17-1.42A50.54,50.54,0,0,1,404,278.39a52.08,52.08,0,0,1-10.27-6.82,54.66,54.66,0,0,1-8.56-9.18,68.51,68.51,0,0,1-6.7-11.18,86.08,86.08,0,0,1-5-13.2,98.37,98.37,0,0,1-3.09-14.94,128.5,128.5,0,0,1-1-16.65,125.1,125.1,0,0,1,1-16.41,96.62,96.62,0,0,1,3.09-14.77,80.31,80.31,0,0,1,5.11-13.11,64.5,64.5,0,0,1,6.94-11.08,56.07,56.07,0,0,1,8.8-9,53.08,53.08,0,0,1,22.33-10.77,62,62,0,0,1,13.17-1.37,53.54,53.54,0,0,1,11.85,1.28A45.37,45.37,0,0,1,452.22,135a62.46,62.46,0,0,1,13.72,9.64l3.3-4,3.3-4a65.33,65.33,0,0,0-7.48-6.17,82.29,82.29,0,0,0-8.94-5.54,49.31,49.31,0,0,0-12.36-4.59A63,63,0,0,0,429.51,118.88Z" style="fill:#232a30"/><path d="M565.28,299.48a61,61,0,0,1-11.93-1.16A58.82,58.82,0,0,1,542,294.85a56.35,56.35,0,0,1-10.37-5.68,58,58,0,0,1-9.08-7.79,59.3,59.3,0,0,1-7.59-9.86,73.23,73.23,0,0,1-5.88-11.9,71,71,0,0,1-3.78-13.78,91,91,0,0,1-1.25-15.47,93.21,93.21,0,0,1,1.25-15.68,70.81,70.81,0,0,1,3.78-13.84A74.49,74.49,0,0,1,515,188.91a61.92,61.92,0,0,1,7.59-10,58.12,58.12,0,0,1,9.08-7.89A55.89,55.89,0,0,1,542,165.34a58.82,58.82,0,0,1,11.33-3.47,62,62,0,0,1,23.87,0,59,59,0,0,1,11.33,3.47,55.89,55.89,0,0,1,10.37,5.71,58.58,58.58,0,0,1,9.08,7.89,61.87,61.87,0,0,1,7.58,10,73.69,73.69,0,0,1,5.89,11.94,70.11,70.11,0,0,1,3.77,13.84,93.18,93.18,0,0,1,1.26,15.68,91,91,0,0,1-1.26,15.47,70.28,70.28,0,0,1-3.77,13.78,72.45,72.45,0,0,1-5.89,11.9,59.25,59.25,0,0,1-7.58,9.86,58.41,58.41,0,0,1-9.08,7.79,56.35,56.35,0,0,1-10.37,5.68,59,59,0,0,1-11.33,3.47A61,61,0,0,1,565.28,299.48Zm0-18.5a35.22,35.22,0,0,0,8.1-.92,31.81,31.81,0,0,0,7.41-2.76,34.68,34.68,0,0,0,6.57-4.42A37.28,37.28,0,0,0,592.9,267a44.25,44.25,0,0,0,4.46-7.31,55.66,55.66,0,0,0,3.3-8.6,66.32,66.32,0,0,0,2-9.8,83.93,83.93,0,0,0,.68-10.88,84.9,84.9,0,0,0-.68-10.92,68.25,68.25,0,0,0-2-9.9,57.41,57.41,0,0,0-3.3-8.74,46,46,0,0,0-4.46-7.45,38,38,0,0,0-5.54-6,33.9,33.9,0,0,0-6.57-4.45,32.73,32.73,0,0,0-7.41-2.76,36.46,36.46,0,0,0-16.19,0,32.38,32.38,0,0,0-7.41,2.76,33.9,33.9,0,0,0-6.57,4.45,37.11,37.11,0,0,0-5.54,6,45.34,45.34,0,0,0-4.46,7.45,57.41,57.41,0,0,0-3.3,8.74,68.25,68.25,0,0,0-2,9.9,84.9,84.9,0,0,0-.68,10.92,83.93,83.93,0,0,0,.68,10.88,66.32,66.32,0,0,0,2,9.8,55.66,55.66,0,0,0,3.3,8.6,43.58,43.58,0,0,0,4.46,7.31,36.39,36.39,0,0,0,5.54,5.92,34.68,34.68,0,0,0,6.57,4.42,31.48,31.48,0,0,0,7.41,2.76A35.07,35.07,0,0,0,565.28,281Z" style="fill:#232a30"/><path d="M565.28,303.9a65.51,65.51,0,0,1-12.8-1.25,63.35,63.35,0,0,1-12.17-3.72,61.15,61.15,0,0,1-11.17-6.12,63.42,63.42,0,0,1-9.78-8.37,65.31,65.31,0,0,1-8.11-10.54A76.75,76.75,0,0,1,505,261.22a75.2,75.2,0,0,1-4-14.56,95.67,95.67,0,0,1-1.34-16.29,97.84,97.84,0,0,1,1.34-16.5,75.12,75.12,0,0,1,4-14.63,78.42,78.42,0,0,1,6.26-12.69,66.43,66.43,0,0,1,8.1-10.64,63.09,63.09,0,0,1,9.78-8.48,60,60,0,0,1,11.19-6.17,63.35,63.35,0,0,1,12.17-3.72,66.21,66.21,0,0,1,25.61,0,63.35,63.35,0,0,1,12.17,3.72,60,60,0,0,1,11.18,6.17,62.69,62.69,0,0,1,9.79,8.48,66.37,66.37,0,0,1,8.09,10.64,78.45,78.45,0,0,1,6.27,12.69,75.42,75.42,0,0,1,4,14.64,97.8,97.8,0,0,1,1.34,16.49,95.84,95.84,0,0,1-1.34,16.29,75.4,75.4,0,0,1-4,14.56,77.58,77.58,0,0,1-6.28,12.68,63.44,63.44,0,0,1-17.88,18.91,60.55,60.55,0,0,1-11.17,6.12,63.35,63.35,0,0,1-12.17,3.72A65.54,65.54,0,0,1,565.28,303.9Zm0-138.76a57.13,57.13,0,0,0-11.06,1.07,55,55,0,0,0-10.49,3.21,51.5,51.5,0,0,0-9.56,5.28,53.16,53.16,0,0,0-8.38,7.27,57.57,57.57,0,0,0-7.06,9.3,70,70,0,0,0-5.51,11.18,66.46,66.46,0,0,0-3.54,13.06,88.94,88.94,0,0,0-1.19,14.86A87,87,0,0,0,509.68,245a66.61,66.61,0,0,0,3.54,13,68.23,68.23,0,0,0,5.5,11.13,55.31,55.31,0,0,0,7,9.19,54.28,54.28,0,0,0,8.39,7.19,52,52,0,0,0,9.57,5.25A55,55,0,0,0,554.22,294a57.7,57.7,0,0,0,22.12,0,55.12,55.12,0,0,0,10.5-3.21,52,52,0,0,0,9.57-5.25,54.2,54.2,0,0,0,8.39-7.19,55.05,55.05,0,0,0,7-9.18A68.77,68.77,0,0,0,617.35,258a66.71,66.71,0,0,0,3.54-13,86.92,86.92,0,0,0,1.19-14.65,89.12,89.12,0,0,0-1.19-14.86,66.84,66.84,0,0,0-3.54-13.06,70,70,0,0,0-5.51-11.18,57.57,57.57,0,0,0-7.06-9.3,53.68,53.68,0,0,0-8.39-7.27,51.18,51.18,0,0,0-9.56-5.28,54.81,54.81,0,0,0-10.49-3.21A57.05,57.05,0,0,0,565.28,165.14Zm0,120.26a39.29,39.29,0,0,1-9.14-1,36.27,36.27,0,0,1-8.4-3.12,39.52,39.52,0,0,1-7.39-5,41.7,41.7,0,0,1-6.21-6.63,49,49,0,0,1-4.88-8,60.27,60.27,0,0,1-3.59-9.35,68.28,68.28,0,0,1-2.17-10.4,91.42,91.42,0,0,1,0-23.06,70.27,70.27,0,0,1,2.16-10.51,61.62,61.62,0,0,1,3.59-9.46,49.81,49.81,0,0,1,4.86-8.13,41.9,41.9,0,0,1,6.23-6.75,38,38,0,0,1,7.4-5,36.27,36.27,0,0,1,8.4-3.12,40.31,40.31,0,0,1,18.28,0,37,37,0,0,1,8.41,3.12,38.36,38.36,0,0,1,7.39,5,41.5,41.5,0,0,1,6.24,6.75,50.52,50.52,0,0,1,4.86,8.13,60.58,60.58,0,0,1,3.58,9.46,69.68,69.68,0,0,1,2.17,10.52,91.18,91.18,0,0,1,0,23,68.55,68.55,0,0,1-2.17,10.42,60.27,60.27,0,0,1-3.59,9.35,48.79,48.79,0,0,1-4.88,8,41.79,41.79,0,0,1-6.22,6.63,39.12,39.12,0,0,1-7.38,5,36.27,36.27,0,0,1-8.4,3.12A39.37,39.37,0,0,1,565.28,285.4Zm0-101.76a30.63,30.63,0,0,0-7,.8,27.43,27.43,0,0,0-6.43,2.38,29.61,29.61,0,0,0-5.72,3.89,32.89,32.89,0,0,0-4.87,5.29,41.31,41.31,0,0,0-4,6.78,52.46,52.46,0,0,0-3,8,62.3,62.3,0,0,0-1.9,9.29,79.11,79.11,0,0,0-.64,10.3,79.92,79.92,0,0,0,.63,10.25,60,60,0,0,0,1.91,9.18,49.71,49.71,0,0,0,3,7.86,39.13,39.13,0,0,0,4,6.63,32.69,32.69,0,0,0,4.87,5.21,30.79,30.79,0,0,0,5.74,3.88,27.86,27.86,0,0,0,6.43,2.37,31.42,31.42,0,0,0,14.09,0,27.86,27.86,0,0,0,6.43-2.37,30.79,30.79,0,0,0,5.74-3.88,33.52,33.52,0,0,0,4.87-5.2,40.3,40.3,0,0,0,4-6.64,50.7,50.7,0,0,0,3-7.86,60.19,60.19,0,0,0,1.9-9.19,78,78,0,0,0,.64-10.24,79.07,79.07,0,0,0-.64-10.29,62.43,62.43,0,0,0-1.9-9.3,52.46,52.46,0,0,0-3-8,41.17,41.17,0,0,0-4-6.79,33.19,33.19,0,0,0-4.86-5.28,29.38,29.38,0,0,0-5.73-3.89,27.36,27.36,0,0,0-6.42-2.38A30.78,30.78,0,0,0,565.28,183.64Z" style="fill:#232a30"/><path d="M661.33,296.21V164h18.5l.95,9.52,1,9.52h.82a115.72,115.72,0,0,1,9.76-8.73,99.24,99.24,0,0,1,10.24-7.18,42.27,42.27,0,0,1,11.32-4.8,51.46,51.46,0,0,1,13-1.6A45.94,45.94,0,0,1,745,164a29.78,29.78,0,0,1,12.48,9.79A45.53,45.53,0,0,1,764.75,190a93.17,93.17,0,0,1,2.42,22.45v83.8H744.86V215.4a75.6,75.6,0,0,0-1.5-16.15,29.41,29.41,0,0,0-4.49-10.92,18.48,18.48,0,0,0-7.75-6.22A28,28,0,0,0,719.83,180a35.2,35.2,0,0,0-9.73,1.3,30.7,30.7,0,0,0-8.5,3.87,87.21,87.21,0,0,0-8.44,6.4q-4.49,3.81-9.52,8.84v95.77H661.33Z" style="fill:#232a30"/><path d="M767.17,300.64H744.86a4.44,4.44,0,0,1-4.43-4.43V215.4a72.91,72.91,0,0,0-1.29-14.77,25.59,25.59,0,0,0-3.86-9.71,14.1,14.1,0,0,0-6.18-4.86,24,24,0,0,0-9.27-1.6,31,31,0,0,0-8.47,1.1A26.61,26.61,0,0,0,704,188.9a80.85,80.85,0,0,0-7.49,5.65c-2.67,2.23-5.49,4.82-8.47,7.73v93.93a4.42,4.42,0,0,1-4.42,4.43H661.33a4.44,4.44,0,0,1-4.43-4.43V164a4.44,4.44,0,0,1,4.43-4.43h18.5a4.43,4.43,0,0,1,3,1.15,4.38,4.38,0,0,1,1.43,2.84l.55,5.42.54,5.41q3.6-3.17,7.34-5.93t7.58-5.11a47,47,0,0,1,12.44-5.27,55.46,55.46,0,0,1,14.22-1.77A50.24,50.24,0,0,1,747,160a34.13,34.13,0,0,1,14.05,11.12A49.87,49.87,0,0,1,769,188.6a96.73,96.73,0,0,1,2.64,23.81v83.8a4.42,4.42,0,0,1-4.42,4.43Zm-17.89-8.85h13.46V212.41a89.85,89.85,0,0,0-2.2-21,41.52,41.52,0,0,0-6.59-15,25.41,25.41,0,0,0-10.9-8.47,41.85,41.85,0,0,0-16.15-2.79,46.74,46.74,0,0,0-11.82,1.44,37.92,37.92,0,0,0-10.23,4.31,96.6,96.6,0,0,0-9.8,6.87,113.63,113.63,0,0,0-9.37,8.39,4.33,4.33,0,0,1-1.44,1,4.4,4.4,0,0,1-1.69.34h-.82a4.45,4.45,0,0,1-4.4-4l-.75-7.54-.75-7.53H665.75V291.79h13.46V200.44a4.4,4.4,0,0,1,.34-1.69,4.49,4.49,0,0,1,1-1.44q5.18-5.17,9.86-9.14a91,91,0,0,1,8.8-6.67,35.28,35.28,0,0,1,9.67-4.41,39.7,39.7,0,0,1,11-1.48,32.45,32.45,0,0,1,13.31,2.54,22.91,22.91,0,0,1,9.32,7.59,33.2,33.2,0,0,1,5.13,12.13,78.48,78.48,0,0,1,1.69,17.53v76.39Z" style="fill:#232a30"/><path d="M838.73,296.21,814.92,230.1,791.11,164h23.13l12.51,37.55,12.52,37.55q1.5,4.89,3,9.79t3.09,9.8l3.1,9.72q1.53,4.83,3,9.59h1.09q1.5-4.75,3-9.59t3-9.72l3-9.8q1.5-4.89,3-9.79l12.52-37.55L889.61,164h22l-23.4,66.12-23.4,66.11H838.73Z" style="fill:#232a30"/><path d="M864.85,300.64H838.73a4.44,4.44,0,0,1-4.17-2.93l-23.8-66.12L787,165.48a4.28,4.28,0,0,1-.22-2.09,4.38,4.38,0,0,1,.76-1.95,4.57,4.57,0,0,1,1.58-1.39,4.46,4.46,0,0,1,2-.5h23.13a4.44,4.44,0,0,1,4.2,3L831,200.13l12.52,37.55c1,3.3,2,6.6,3,9.87s2.05,6.54,3.09,9.77c.4,1.28.81,2.55,1.21,3.82s.81,2.53,1.21,3.8c.39-1.26.78-2.52,1.16-3.78l1.17-3.79,3-9.79,3-9.8,12.54-37.6,12.53-37.6a4.44,4.44,0,0,1,4.2-3h22a4.45,4.45,0,0,1,2,.5,4.51,4.51,0,0,1,1.58,1.37,4.45,4.45,0,0,1,.56,4l-23.4,66.11L869,297.69a4.43,4.43,0,0,1-4.17,2.95Zm-23-8.85h19.88l21.83-61.69,21.84-61.7h-12.6l-12,36-12,36-3,9.74-3,9.74q-1.5,4.91-3,9.74t-3,9.61a4.42,4.42,0,0,1-4.22,3.1h-1.09a4.45,4.45,0,0,1-4.22-3.1q-1.49-4.76-3-9.58T841.18,260q-1.56-4.87-3.1-9.81t-3-9.83l-12-36-12-36H797.41l22.21,61.7Z" style="fill:#232a30"/><path d="M989.73,299.48a68.82,68.82,0,0,1-12.89-1.19,62.87,62.87,0,0,1-12-3.57A60.84,60.84,0,0,1,954,288.94a59.25,59.25,0,0,1-9.32-7.83,58.6,58.6,0,0,1-7.65-9.83,69.65,69.65,0,0,1-5.82-11.8,71.55,71.55,0,0,1-3.67-13.67,93.74,93.74,0,0,1-1.22-15.44,92.27,92.27,0,0,1,1.25-15.48,71.09,71.09,0,0,1,3.78-13.77,76.12,76.12,0,0,1,5.85-11.94,62.6,62.6,0,0,1,7.48-10,60.5,60.5,0,0,1,8.88-7.93,55.8,55.8,0,0,1,10-5.81,54,54,0,0,1,10.82-3.57,52.53,52.53,0,0,1,11.22-1.2,62.73,62.73,0,0,1,11.87,1.09,50.31,50.31,0,0,1,10.58,3.27,45.24,45.24,0,0,1,9.11,5.3,43.65,43.65,0,0,1,7.49,7.21,52.68,52.68,0,0,1,5.88,9,63.94,63.94,0,0,1,4.32,10.61,76.26,76.26,0,0,1,2.65,12.11,98.3,98.3,0,0,1,.89,13.47c0,1.18,0,2.35,0,3.5s-.06,2.31-.1,3.44-.13,2.19-.24,3.16a26.07,26.07,0,0,1-.44,2.69H948.38a63,63,0,0,0,4,19,44.42,44.42,0,0,0,9.22,14.59,38.62,38.62,0,0,0,13.64,9.29,46,46,0,0,0,17.24,3.09,57.52,57.52,0,0,0,9.15-.71,48.3,48.3,0,0,0,8.4-2.15,75,75,0,0,0,7.86-3.3,78.23,78.23,0,0,0,7.52-4.18l3.94,7.35,4,7.34a104.86,104.86,0,0,1-9.19,5.11q-4.83,2.37-10.13,4.42a59,59,0,0,1-11.36,3.06A77.41,77.41,0,0,1,989.73,299.48Zm-41.63-80h70.75a65.81,65.81,0,0,0-2.15-17.71,35,35,0,0,0-6.42-12.9A27.29,27.29,0,0,0,1000,181a34.13,34.13,0,0,0-13.77-2.62,35.05,35.05,0,0,0-6.91.68,33.22,33.22,0,0,0-6.56,2,34.22,34.22,0,0,0-6.09,3.37,37.81,37.81,0,0,0-5.48,4.66,40.25,40.25,0,0,0-4.72,5.88,49.2,49.2,0,0,0-3.85,7,52.19,52.19,0,0,0-2.82,8.16A67.57,67.57,0,0,0,948.1,219.48Z" style="fill:#232a30"/><path d="M989.73,303.9A73,73,0,0,1,976,302.62a66.67,66.67,0,0,1-12.84-3.81,65.12,65.12,0,0,1-11.6-6.21,63,63,0,0,1-18.23-18.94,72.77,72.77,0,0,1-6.22-12.6,75,75,0,0,1-3.88-14.45,97.12,97.12,0,0,1-1.31-16.24,95.67,95.67,0,0,1,1.34-16.29,75.3,75.3,0,0,1,4-14.57,80.19,80.19,0,0,1,6.22-12.67,67.07,67.07,0,0,1,8-10.63A65.26,65.26,0,0,1,951,167.7a61,61,0,0,1,10.8-6.26,58.84,58.84,0,0,1,11.71-3.86,57.41,57.41,0,0,1,12.14-1.29,66.62,66.62,0,0,1,12.77,1.19,54.48,54.48,0,0,1,11.45,3.53,49.88,49.88,0,0,1,10,5.84,47.92,47.92,0,0,1,8.24,7.93,56.65,56.65,0,0,1,6.35,9.69,68.57,68.57,0,0,1,4.66,11.39,81.65,81.65,0,0,1,2.79,12.77,101.76,101.76,0,0,1,.94,14.12c0,1.19,0,2.38,0,3.56s-.06,2.38-.11,3.55-.14,2.47-.27,3.57a31,31,0,0,1-.51,3.06,4.41,4.41,0,0,1-4.32,3.47H953.25a53.56,53.56,0,0,0,4,14.68,39.51,39.51,0,0,0,7.57,11.44,34,34,0,0,0,12.17,8.29,41.71,41.71,0,0,0,15.51,2.72,52,52,0,0,0,8.4-.65,42.86,42.86,0,0,0,7.67-1.95,70.54,70.54,0,0,0,7.42-3.11,75.41,75.41,0,0,0,7.08-3.94,4.34,4.34,0,0,1,1.69-.63,4.51,4.51,0,0,1,1.79.09,4.4,4.4,0,0,1,2.77,2.19l4,7.34,3.94,7.35a4.37,4.37,0,0,1,.38,3.23,4.42,4.42,0,0,1-1.93,2.62,107.44,107.44,0,0,1-9.56,5.3q-5,2.49-10.51,4.6a63.48,63.48,0,0,1-12.15,3.27A81.81,81.81,0,0,1,989.73,303.9Zm-4.08-138.76a48.68,48.68,0,0,0-10.29,1.1,50.29,50.29,0,0,0-9.94,3.27,52.4,52.4,0,0,0-9.26,5.38,56.43,56.43,0,0,0-8.21,7.33,58,58,0,0,0-7,9.31,71.39,71.39,0,0,0-5.49,11.19,66.71,66.71,0,0,0-3.54,13,87,87,0,0,0-1.19,14.66A88.7,88.7,0,0,0,931.92,245a66.78,66.78,0,0,0,3.45,12.9,63.94,63.94,0,0,0,5.42,11,53.81,53.81,0,0,0,15.72,16.37,56.12,56.12,0,0,0,10,5.35,57.77,57.77,0,0,0,11.19,3.32,64,64,0,0,0,12,1.11,73.4,73.4,0,0,0,12-.95,54.82,54.82,0,0,0,10.58-2.83c2.68-1,5.28-2.14,7.78-3.31s4.92-2.42,7.22-3.72l-1.85-3.45-1.85-3.46q-2.94,1.64-6,3c-2,.91-4.09,1.75-6.18,2.49a53,53,0,0,1-9.14,2.33,61.27,61.27,0,0,1-9.9.78,50.27,50.27,0,0,1-19-3.45,42.92,42.92,0,0,1-15.1-10.3,48.7,48.7,0,0,1-10.06-15.87,67.17,67.17,0,0,1-4.35-20.5,4.4,4.4,0,0,1,1.19-3.31,4.55,4.55,0,0,1,1.47-1,4.37,4.37,0,0,1,1.76-.37h85.4l.06-.78c0-.27,0-.55,0-.82,0-1.12.08-2.24.1-3.37s0-2.26,0-3.39a93.72,93.72,0,0,0-.84-12.8,72.15,72.15,0,0,0-2.5-11.47,59.27,59.27,0,0,0-4-9.82,48,48,0,0,0-5.41-8.28,39,39,0,0,0-6.74-6.48,40.92,40.92,0,0,0-8.21-4.78,45.46,45.46,0,0,0-9.72-3A57.46,57.46,0,0,0,985.65,165.14Zm33.2,58.77H948.1a4.25,4.25,0,0,1-1.8-.39,4.39,4.39,0,0,1-1.49-1.08,4.47,4.47,0,0,1-.92-1.61,4.34,4.34,0,0,1-.18-1.83,69.85,69.85,0,0,1,1.79-9.92,56,56,0,0,1,3-8.81,52.75,52.75,0,0,1,4.23-7.72,43.48,43.48,0,0,1,5.22-6.49,41.75,41.75,0,0,1,6.13-5.22,39.34,39.34,0,0,1,6.86-3.79,38.37,38.37,0,0,1,7.42-2.3,41,41,0,0,1,23.45,2.26,31.62,31.62,0,0,1,11.84,9.06,39.2,39.2,0,0,1,7.17,14.22,69.83,69.83,0,0,1,2.4,19.19,4.42,4.42,0,0,1-4.42,4.43Zm-65.62-8.85h61.07a53.79,53.79,0,0,0-2.28-13.48,29.68,29.68,0,0,0-5.17-9.9,22.85,22.85,0,0,0-8.77-6.66,30.41,30.41,0,0,0-28.94,3.12,34.07,34.07,0,0,0-4.81,4.09,36.61,36.61,0,0,0-4.23,5.29,44.14,44.14,0,0,0-3.47,6.35,47.62,47.62,0,0,0-2,5.32A55.37,55.37,0,0,0,953.23,215.06Z" style="fill:#232a30"/><path d="M1123.32,299.48a68.1,68.1,0,0,1-12.65-1.16,62.42,62.42,0,0,1-11.84-3.47,56.12,56.12,0,0,1-10.64-5.68,54.14,54.14,0,0,1-9.08-7.79,57.43,57.43,0,0,1-7.42-9.86,70.25,70.25,0,0,1-5.64-11.9,73.77,73.77,0,0,1-3.57-13.78,95.48,95.48,0,0,1-1.19-15.47,91.07,91.07,0,0,1,1.29-15.68,68.87,68.87,0,0,1,3.88-13.84,72.56,72.56,0,0,1,6-11.94,62,62,0,0,1,7.82-10,57.79,57.79,0,0,1,20.27-13.6,64.26,64.26,0,0,1,11.87-3.47,66.83,66.83,0,0,1,12.48-1.16,59.7,59.7,0,0,1,12.11,1.16,41.75,41.75,0,0,1,10.21,3.47,79.78,79.78,0,0,1,8.7,5,71,71,0,0,1,7.62,5.84l-5.71,7.35-5.72,7.35a58.19,58.19,0,0,0-5.88-4.7,54.53,54.53,0,0,0-6.22-3.74,29.42,29.42,0,0,0-6.77-2.45,33.92,33.92,0,0,0-7.52-.81,40.07,40.07,0,0,0-8.64.91,36.87,36.87,0,0,0-15,7.21,39.21,39.21,0,0,0-6,6,47.77,47.77,0,0,0-4.86,7.45,58.11,58.11,0,0,0-3.71,8.74,59.14,59.14,0,0,0-2.34,9.9,72.31,72.31,0,0,0-.79,10.92,75.68,75.68,0,0,0,.75,10.88,59.43,59.43,0,0,0,2.25,9.8,54.17,54.17,0,0,0,3.57,8.6,44.71,44.71,0,0,0,4.73,7.31,36.58,36.58,0,0,0,12.92,10.34,35.91,35.91,0,0,0,8,2.76,39.93,39.93,0,0,0,8.64.92,39,39,0,0,0,8.87-1,35.32,35.32,0,0,0,8.13-3,68.58,68.58,0,0,0,7.38-4.32,63.78,63.78,0,0,0,6.63-5.07l4.9,7.49,4.9,7.48A71.06,71.06,0,0,1,1146.18,295a59.71,59.71,0,0,1-11.16,3.37A61.23,61.23,0,0,1,1123.32,299.48Z" style="fill:#232a30"/><path d="M1123.32,303.9a72.25,72.25,0,0,1-13.49-1.24,66.22,66.22,0,0,1-12.65-3.71,60.16,60.16,0,0,1-11.49-6.13,59,59,0,0,1-9.81-8.41,62.49,62.49,0,0,1-8-10.56,75.11,75.11,0,0,1-6-12.7,78.67,78.67,0,0,1-3.77-14.53,100.81,100.81,0,0,1-1.27-16.25,94.85,94.85,0,0,1,1.38-16.51,74.13,74.13,0,0,1,4.11-14.66,77.54,77.54,0,0,1,6.45-12.7,66.63,66.63,0,0,1,8.36-10.64,62.76,62.76,0,0,1,21.8-14.63,69,69,0,0,1,12.68-3.7,71.65,71.65,0,0,1,13.31-1.24,64,64,0,0,1,13.12,1.28,45.93,45.93,0,0,1,11.17,3.81,87.58,87.58,0,0,1,9.21,5.33,76.5,76.5,0,0,1,8.07,6.2,4.41,4.41,0,0,1,.56,6l-5.71,7.35-5.71,7.34a4.42,4.42,0,0,1-1.38,1.17,4.41,4.41,0,0,1-5.08-.6,54.6,54.6,0,0,0-5.44-4.33,49.08,49.08,0,0,0-5.72-3.45,24.48,24.48,0,0,0-5.79-2.08,28.93,28.93,0,0,0-6.48-.7,35.51,35.51,0,0,0-7.65.81,31.53,31.53,0,0,0-7,2.43,32.13,32.13,0,0,0-6.24,3.93,34.13,34.13,0,0,0-5.29,5.32,43.49,43.49,0,0,0-4.43,6.8,52.79,52.79,0,0,0-3.4,8,54.6,54.6,0,0,0-2.17,9.21,68.34,68.34,0,0,0-.73,10.21,71,71,0,0,0,.7,10.2,54.68,54.68,0,0,0,2.08,9.11,50.84,50.84,0,0,0,3.26,7.87,40.84,40.84,0,0,0,4.29,6.66,32.42,32.42,0,0,0,11.38,9.11,32.2,32.2,0,0,0,7,2.42,35.61,35.61,0,0,0,7.66.81,34.63,34.63,0,0,0,7.84-.87,31.23,31.23,0,0,0,7.16-2.59,67.08,67.08,0,0,0,6.9-4,59.79,59.79,0,0,0,6.21-4.74,4.55,4.55,0,0,1,1.64-.9,4.37,4.37,0,0,1,1.87-.14,4.55,4.55,0,0,1,1.76.64,4.44,4.44,0,0,1,1.34,1.32l4.89,7.48,4.9,7.49a4.4,4.4,0,0,1-.78,5.74,75.34,75.34,0,0,1-21.09,13.15,64.1,64.1,0,0,1-24.55,4.82ZM1125,165.14a62.47,62.47,0,0,0-11.64,1.08,59.68,59.68,0,0,0-11.06,3.23A53.91,53.91,0,0,0,1083.51,182a57,57,0,0,0-7.28,9.3,67.94,67.94,0,0,0-5.66,11.17,65,65,0,0,0-3.64,13,86.65,86.65,0,0,0-1.22,14.84,92,92,0,0,0,1.13,14.7,69.89,69.89,0,0,0,3.36,13,66.48,66.48,0,0,0,5.26,11.1,53.18,53.18,0,0,0,6.87,9.16,50.87,50.87,0,0,0,8.36,7.17,51.94,51.94,0,0,0,9.8,5.23,58,58,0,0,0,11,3.22,63.55,63.55,0,0,0,11.8,1.08,56.58,56.58,0,0,0,10.84-1,54.87,54.87,0,0,0,10.33-3.11,65.57,65.57,0,0,0,8.14-4,66.87,66.87,0,0,0,7.55-5.13l-2.48-3.79-2.48-3.79q-2.55,1.92-5.3,3.63c-1.83,1.14-3.73,2.2-5.68,3.2a40.61,40.61,0,0,1-9.1,3.31,43.63,43.63,0,0,1-9.91,1.11,44.75,44.75,0,0,1-9.63-1,41.36,41.36,0,0,1-23.36-14.65,50.32,50.32,0,0,1-5.16-8,59.66,59.66,0,0,1-3.88-9.33,62.67,62.67,0,0,1-2.4-10.46,79.84,79.84,0,0,1-.81-11.58,78,78,0,0,1,.84-11.63,62.76,62.76,0,0,1,2.52-10.59,61.82,61.82,0,0,1,4-9.45,52.12,52.12,0,0,1,5.3-8.1,43,43,0,0,1,6.69-6.72,42.06,42.06,0,0,1,7.9-5,41.12,41.12,0,0,1,8.9-3.08,44.73,44.73,0,0,1,9.62-1,38.43,38.43,0,0,1,8.55.94,34,34,0,0,1,7.75,2.81q2.43,1.25,4.8,2.76t4.62,3.27l3-3.83,3-3.84a66.71,66.71,0,0,0-5.79-4q-3-1.91-6.39-3.57a37.61,37.61,0,0,0-9.24-3.12A55.8,55.8,0,0,0,1125,165.14Z" style="fill:#232a30"/><path d="M1234.06,299.48a53.7,53.7,0,0,1-9.76-.82,34.27,34.27,0,0,1-8.06-2.45,33.12,33.12,0,0,1-6.53-3.88,28.7,28.7,0,0,1-5.17-5.1,31.06,31.06,0,0,1-3.84-6.32,38.93,38.93,0,0,1-2.55-7.55,68.07,68.07,0,0,1-1.43-8.57,88.56,88.56,0,0,1-.48-9.39V182.21h-19.59V165.34l10.34-.68,10.34-.68,1.36-18.5,1.36-18.5h18.77v37h35.65v18.23h-35.65v73.46a47.09,47.09,0,0,0,1.13,10.85,24.34,24.34,0,0,0,3.36,8.06,13.59,13.59,0,0,0,6.23,5,25.08,25.08,0,0,0,9.69,1.67,26.13,26.13,0,0,0,3.67-.27,36.62,36.62,0,0,0,3.95-.82c1.36-.36,2.65-.75,3.88-1.15s2.38-.84,3.47-1.3l2.17,8.44,2.18,8.43q-2.73,1-5.68,1.8t-6.16,1.6a57.31,57.31,0,0,1-6.36,1.12A53.34,53.34,0,0,1,1234.06,299.48Z" style="fill:#232a30"/><path d="M1234.06,303.9a58.57,58.57,0,0,1-10.69-.92,38.52,38.52,0,0,1-9-2.74,37.25,37.25,0,0,1-7.43-4.43,33.41,33.41,0,0,1-5.92-5.84,36.19,36.19,0,0,1-4.35-7.15,43.38,43.38,0,0,1-2.87-8.46,75.21,75.21,0,0,1-1.52-9.07,95.41,95.41,0,0,1-.5-9.89V186.63h-15.17a4.4,4.4,0,0,1-4.42-4.42V165.34a4.41,4.41,0,0,1,4.13-4.41l8.42-.56,8.42-.55,1.22-16.59,1.22-16.58a4.44,4.44,0,0,1,4.41-4.1h18.77a4.44,4.44,0,0,1,4.43,4.43v32.57h31.22a4.42,4.42,0,0,1,4.42,4.43v18.23a4.4,4.4,0,0,1-4.42,4.42h-31.22v69a43,43,0,0,0,.94,9.55,20.2,20.2,0,0,0,2.79,6.89,9.55,9.55,0,0,0,4.64,3.55,21.37,21.37,0,0,0,7.61,1.16,22.66,22.66,0,0,0,3.1-.23,28.8,28.8,0,0,0,3.38-.71c1.26-.33,2.46-.69,3.59-1.06s2.2-.78,3.19-1.19a4.37,4.37,0,0,1,1.85-.34,4.3,4.3,0,0,1,1.82.46,4.36,4.36,0,0,1,1.47,1.18,4.24,4.24,0,0,1,.85,1.68l2.18,8.43,2.17,8.43a4.42,4.42,0,0,1-2.82,5.29c-1.87.65-3.84,1.27-5.89,1.86s-4.19,1.15-6.4,1.67a63.82,63.82,0,0,1-6.87,1.21A57.77,57.77,0,0,1,1234.06,303.9Zm-53-126.12h15.16a4.44,4.44,0,0,1,4.43,4.43V255.4a87.27,87.27,0,0,0,.44,8.88,66.9,66.9,0,0,0,1.34,8.07,35.22,35.22,0,0,0,2.24,6.64,27.19,27.19,0,0,0,3.33,5.51,25,25,0,0,0,4.42,4.35,28.83,28.83,0,0,0,5.62,3.33,30.63,30.63,0,0,0,7.17,2.15,50.18,50.18,0,0,0,8.83.72,49.34,49.34,0,0,0,5.78-.34,53.58,53.58,0,0,0,5.87-1c1.31-.31,2.6-.63,3.85-1s2.48-.69,3.67-1l-1-4.07-1-4.06-1.55.46-1.6.45a36.7,36.7,0,0,1-4.5.92,29.86,29.86,0,0,1-4.25.31,29.16,29.16,0,0,1-11.78-2.16,17.94,17.94,0,0,1-7.81-6.46,28.45,28.45,0,0,1-3.92-9.24,51,51,0,0,1-1.32-12.14V182.21a4.44,4.44,0,0,1,4.42-4.43H1250V168.4h-31.22a4.42,4.42,0,0,1-4.42-4.42V131.4h-10.24L1203,147.85l-1.21,16.45a4.4,4.4,0,0,1-4.12,4.09l-8.27.55-8.27.54v8.3Z" style="fill:#232a30"/><path d="M1332,299.48a61.19,61.19,0,0,1-11.94-1.16,58.94,58.94,0,0,1-11.32-3.47,56.35,56.35,0,0,1-10.37-5.68,58,58,0,0,1-9.08-7.79,58.77,58.77,0,0,1-7.59-9.86,72.43,72.43,0,0,1-5.88-11.9,71,71,0,0,1-3.78-13.78,91,91,0,0,1-1.26-15.47,93.18,93.18,0,0,1,1.26-15.68,70.81,70.81,0,0,1,3.78-13.84,73.66,73.66,0,0,1,5.88-11.94,61.35,61.35,0,0,1,7.59-10,58.12,58.12,0,0,1,9.08-7.89,55.89,55.89,0,0,1,10.37-5.71,58.94,58.94,0,0,1,11.32-3.47,62,62,0,0,1,23.88,0,59,59,0,0,1,11.33,3.47,55.89,55.89,0,0,1,10.37,5.71,58.58,58.58,0,0,1,9.08,7.89,61.87,61.87,0,0,1,7.58,10,73.69,73.69,0,0,1,5.89,11.94,70.81,70.81,0,0,1,3.77,13.84,93.18,93.18,0,0,1,1.26,15.68,91,91,0,0,1-1.26,15.47,71,71,0,0,1-3.77,13.78,72.45,72.45,0,0,1-5.89,11.9,59.25,59.25,0,0,1-7.58,9.86,58.41,58.41,0,0,1-9.08,7.79,56.35,56.35,0,0,1-10.37,5.68,59,59,0,0,1-11.33,3.47A61.19,61.19,0,0,1,1332,299.48Zm0-18.5a35.22,35.22,0,0,0,8.1-.92,31.81,31.81,0,0,0,7.41-2.76,34.29,34.29,0,0,0,6.56-4.42,36.88,36.88,0,0,0,5.55-5.92,43.54,43.54,0,0,0,4.45-7.31,53.69,53.69,0,0,0,3.3-8.6,63.85,63.85,0,0,0,2-9.8,82.2,82.2,0,0,0,.68-10.88,83.14,83.14,0,0,0-.68-10.92,65.68,65.68,0,0,0-2-9.9,55.37,55.37,0,0,0-3.3-8.74,45.3,45.3,0,0,0-4.45-7.45,37.62,37.62,0,0,0-5.55-6,33.53,33.53,0,0,0-6.56-4.45,32.73,32.73,0,0,0-7.41-2.76,36.46,36.46,0,0,0-16.19,0,32.63,32.63,0,0,0-7.42,2.76,33.83,33.83,0,0,0-6.56,4.45,37.11,37.11,0,0,0-5.54,6,45.34,45.34,0,0,0-4.46,7.45,57.41,57.41,0,0,0-3.3,8.74,65.68,65.68,0,0,0-2,9.9,84.9,84.9,0,0,0-.68,10.92,83.93,83.93,0,0,0,.68,10.88,63.85,63.85,0,0,0,2,9.8,55.66,55.66,0,0,0,3.3,8.6,43.58,43.58,0,0,0,4.46,7.31,36.39,36.39,0,0,0,5.54,5.92,34.61,34.61,0,0,0,6.56,4.42,31.72,31.72,0,0,0,7.42,2.76A35.07,35.07,0,0,0,1332,281Z" style="fill:#232a30"/><path d="M1332,303.9a65.51,65.51,0,0,1-12.8-1.25,63.13,63.13,0,0,1-12.17-3.72,60.82,60.82,0,0,1-11.17-6.12,63.42,63.42,0,0,1-9.78-8.37A65.31,65.31,0,0,1,1278,273.9a77.58,77.58,0,0,1-6.28-12.68,75.19,75.19,0,0,1-4-14.56,95.67,95.67,0,0,1-1.34-16.29,97.84,97.84,0,0,1,1.34-16.5,75.12,75.12,0,0,1,4-14.63,79.28,79.28,0,0,1,6.27-12.69,66.43,66.43,0,0,1,8.1-10.64,63.09,63.09,0,0,1,9.78-8.48,60.28,60.28,0,0,1,11.18-6.17,63.44,63.44,0,0,1,12.18-3.72,66.21,66.21,0,0,1,25.61,0,63.35,63.35,0,0,1,12.17,3.72,60.28,60.28,0,0,1,11.18,6.17,62.63,62.63,0,0,1,9.78,8.48,65.85,65.85,0,0,1,8.1,10.64,79.28,79.28,0,0,1,6.27,12.69,76.13,76.13,0,0,1,4,14.64,97.8,97.8,0,0,1,1.34,16.49,95.84,95.84,0,0,1-1.34,16.29,75.4,75.4,0,0,1-4,14.56A77.58,77.58,0,0,1,1386,273.9a63.3,63.3,0,0,1-17.89,18.91,60.15,60.15,0,0,1-11.16,6.12,63.35,63.35,0,0,1-12.17,3.72A65.54,65.54,0,0,1,1332,303.9Zm0-138.76a57.13,57.13,0,0,0-11.06,1.07,55,55,0,0,0-10.49,3.21,51.5,51.5,0,0,0-9.56,5.28,53.16,53.16,0,0,0-8.38,7.27,57.57,57.57,0,0,0-7.06,9.3,70,70,0,0,0-5.51,11.18,66.46,66.46,0,0,0-3.54,13.06,88.94,88.94,0,0,0-1.19,14.86,87,87,0,0,0,1.19,14.66,66.61,66.61,0,0,0,3.54,13,68.23,68.23,0,0,0,5.5,11.13,55.31,55.31,0,0,0,7,9.19,54.28,54.28,0,0,0,8.39,7.19,52,52,0,0,0,9.57,5.25A55,55,0,0,0,1321,294a57.7,57.7,0,0,0,22.12,0,54.81,54.81,0,0,0,10.49-3.21,51.71,51.71,0,0,0,9.57-5.25,53.81,53.81,0,0,0,8.4-7.19,55.59,55.59,0,0,0,7-9.18,68.77,68.77,0,0,0,5.51-11.14,66.71,66.71,0,0,0,3.54-13,86.92,86.92,0,0,0,1.19-14.65,89.12,89.12,0,0,0-1.19-14.86,66.84,66.84,0,0,0-3.54-13.06,70.06,70.06,0,0,0-5.52-11.18,57,57,0,0,0-7.06-9.3,53.16,53.16,0,0,0-8.38-7.27,51.18,51.18,0,0,0-9.56-5.28,54.81,54.81,0,0,0-10.49-3.21A57.05,57.05,0,0,0,1332,165.14Zm0,120.26a39.29,39.29,0,0,1-9.14-1,36.51,36.51,0,0,1-8.41-3.12,39.44,39.44,0,0,1-7.38-5,42.22,42.22,0,0,1-6.22-6.63,48.9,48.9,0,0,1-4.87-8,58.32,58.32,0,0,1-3.59-9.35,68.28,68.28,0,0,1-2.18-10.4,92.68,92.68,0,0,1,0-23.06,71.55,71.55,0,0,1,2.17-10.51,60.6,60.6,0,0,1,3.59-9.46,49.81,49.81,0,0,1,4.86-8.13,41.45,41.45,0,0,1,6.23-6.75,38,38,0,0,1,7.4-5,36.27,36.27,0,0,1,8.4-3.12,40.31,40.31,0,0,1,18.28,0,37,37,0,0,1,8.41,3.12,38.67,38.67,0,0,1,7.39,5,41,41,0,0,1,6.23,6.75,49.85,49.85,0,0,1,4.87,8.13,60.58,60.58,0,0,1,3.58,9.46,70.93,70.93,0,0,1,2.17,10.52,91.18,91.18,0,0,1,0,23,68.55,68.55,0,0,1-2.17,10.42,59.3,59.3,0,0,1-3.6,9.35,48.07,48.07,0,0,1-4.87,8,41.79,41.79,0,0,1-6.22,6.63,39.44,39.44,0,0,1-7.38,5,36.34,36.34,0,0,1-8.41,3.12A39.22,39.22,0,0,1,1332,285.4Zm0-101.76a30.63,30.63,0,0,0-7,.8,27.43,27.43,0,0,0-6.43,2.38,29.61,29.61,0,0,0-5.72,3.89A32.89,32.89,0,0,0,1308,196a41.31,41.31,0,0,0-4,6.78,52.46,52.46,0,0,0-3,8,63.58,63.58,0,0,0-1.91,9.29,81,81,0,0,0-.63,10.3,79.92,79.92,0,0,0,.63,10.25,60,60,0,0,0,1.91,9.18,50.69,50.69,0,0,0,3,7.86,39.82,39.82,0,0,0,4,6.63,32.63,32.63,0,0,0,4.86,5.21,31.19,31.19,0,0,0,5.75,3.88,27.86,27.86,0,0,0,6.43,2.37,31.42,31.42,0,0,0,14.09,0,27.78,27.78,0,0,0,6.42-2.37,30.54,30.54,0,0,0,5.75-3.88,33.52,33.52,0,0,0,4.87-5.2,40.3,40.3,0,0,0,4-6.64,51.73,51.73,0,0,0,3-7.86,60.19,60.19,0,0,0,1.9-9.19,78,78,0,0,0,.64-10.24,79.07,79.07,0,0,0-.64-10.29,62.42,62.42,0,0,0-1.91-9.3,52.45,52.45,0,0,0-3-8,41.17,41.17,0,0,0-4-6.79,33.19,33.19,0,0,0-4.86-5.28,29.38,29.38,0,0,0-5.73-3.89,27.43,27.43,0,0,0-6.43-2.38A30.63,30.63,0,0,0,1332,183.64Z" style="fill:#232a30"/><path d="M1428.06,296.21V164h18.5l1,12,1,12h.82a70,70,0,0,1,7.51-11.22,54.74,54.74,0,0,1,9-8.64,36.68,36.68,0,0,1,10.1-5.51,33.31,33.31,0,0,1,11-1.84,39,39,0,0,1,7.48.69,31.92,31.92,0,0,1,6.67,2l-2.18,9.8-2.18,9.79c-1.09-.36-2.13-.67-3.13-.94s-2-.5-2.85-.69a26.81,26.81,0,0,0-3.07-.4c-1.13-.1-2.38-.14-3.74-.14a23.75,23.75,0,0,0-8.6,1.7A37.07,37.07,0,0,0,1457.75,197a77.46,77.46,0,0,0-7.38,14.35v84.89h-22.31Z" style="fill:#232a30"/><path d="M1450.37,300.64h-22.31a4.44,4.44,0,0,1-4.43-4.43V164a4.44,4.44,0,0,1,4.43-4.43h18.5a4.44,4.44,0,0,1,4.41,4.08l.48,6,.48,6a63.85,63.85,0,0,1,5.3-6.06,56.71,56.71,0,0,1,5.83-5.11,40.94,40.94,0,0,1,11.37-6.18,37.53,37.53,0,0,1,12.4-2.07,43.56,43.56,0,0,1,8.37.78,35.53,35.53,0,0,1,7.54,2.31,4.41,4.41,0,0,1,2.55,5l-2.17,9.8-2.18,9.79a4.49,4.49,0,0,1-.76,1.68,4.43,4.43,0,0,1-1.37,1.21,4.48,4.48,0,0,1-1.76.56,4.34,4.34,0,0,1-1.82-.21c-1-.33-2-.62-2.86-.87s-1.79-.45-2.61-.62a21.48,21.48,0,0,0-2.63-.34q-1.49-.12-3.3-.12a19.46,19.46,0,0,0-7.2,1.49,33.86,33.86,0,0,0-7.7,4.44,33.19,33.19,0,0,0-7.49,8.21,72.75,72.75,0,0,0-6.65,12.78v84a4.42,4.42,0,0,1-4.42,4.43Zm-17.89-8.85h13.46V211.32a4.78,4.78,0,0,1,.08-.84,5.41,5.41,0,0,1,.24-.81,82.4,82.4,0,0,1,8-15.42,41.72,41.72,0,0,1,9.41-10.15,42.82,42.82,0,0,1,10.19-5.75,28.15,28.15,0,0,1,10-1.93c1.52,0,2.9.06,4.18.16a30.14,30.14,0,0,1,3.49.47l.9.2.93.21,1.24-5.58,1.24-5.59a30.72,30.72,0,0,0-4.31-.86,37.17,37.17,0,0,0-4.67-.29,29,29,0,0,0-9.58,1.59,32.08,32.08,0,0,0-8.83,4.85,49.43,49.43,0,0,0-8.26,8,64.8,64.8,0,0,0-7,10.44,4.41,4.41,0,0,1-3.89,2.32h-.82a4.44,4.44,0,0,1-4.41-4.08l-.79-9.93-.79-9.94h-10V291.79Z" style="fill:#232a30"/><path d="M1628.58,299.48a90.71,90.71,0,0,1-18.1-1.77,81.69,81.69,0,0,1-16.73-5.31,88.44,88.44,0,0,1-15-8.36,84.39,84.39,0,0,1-12.78-11l6.8-7.9,6.8-7.89a73.41,73.41,0,0,0,10.37,9.09,77.68,77.68,0,0,0,12.08,7.1,64.56,64.56,0,0,0,13.16,4.6,61.07,61.07,0,0,0,13.64,1.53,56,56,0,0,0,15.71-2,32.78,32.78,0,0,0,11.77-6,26.23,26.23,0,0,0,7.35-9.29,27.68,27.68,0,0,0,2.45-11.8,32.58,32.58,0,0,0-.58-6.29,22,22,0,0,0-1.74-5.27,25.68,25.68,0,0,0-2.72-4.42,24.52,24.52,0,0,0-3.54-3.74,38.55,38.55,0,0,0-4.32-3.23,51.61,51.61,0,0,0-5.06-2.9l-5.65-2.78c-2-1-4-1.93-6-2.93l-12.79-5.58-12.79-5.57q-3.12-1.36-6.32-3c-2.14-1.08-4.29-2.26-6.47-3.53a54,54,0,0,1-6.19-4.22,53.42,53.42,0,0,1-5.51-5,42.32,42.32,0,0,1-4.69-6,46.68,46.68,0,0,1-3.74-7,37.65,37.65,0,0,1-2.45-8.06,50,50,0,0,1-.82-9.22,44.41,44.41,0,0,1,1.06-9.72,41.19,41.19,0,0,1,3.16-9.05,46.34,46.34,0,0,1,5-8.13,47.14,47.14,0,0,1,6.67-7,51.83,51.83,0,0,1,8.16-5.68,58.49,58.49,0,0,1,9.53-4.25,62.12,62.12,0,0,1,10.71-2.65,75.21,75.21,0,0,1,11.73-.89,76.21,76.21,0,0,1,15.44,1.53,67.88,67.88,0,0,1,14.22,4.59,79.83,79.83,0,0,1,12.58,7,70.24,70.24,0,0,1,10.55,8.88l-6.12,7.35-6.12,7.34a66.93,66.93,0,0,0-8.61-7,62.83,62.83,0,0,0-9.49-5.34,49.33,49.33,0,0,0-10.58-3.37,61.09,61.09,0,0,0-11.87-1.12,48.6,48.6,0,0,0-13.5,1.74,31.65,31.65,0,0,0-10.57,5.2,22.45,22.45,0,0,0-6.84,8.26,25.15,25.15,0,0,0-2.28,10.92,25.78,25.78,0,0,0,.65,6,18.38,18.38,0,0,0,1.93,5,26.48,26.48,0,0,0,3,4.22,29.13,29.13,0,0,0,3.91,3.67,53.08,53.08,0,0,0,4.56,3.2,56.84,56.84,0,0,0,5,2.79q2.58,1.29,5.23,2.48t5.38,2.28l12.65,5.44,12.65,5.44q3.81,1.64,7.41,3.51c2.41,1.24,4.74,2.57,7,4a54.29,54.29,0,0,1,6.33,4.55,49.33,49.33,0,0,1,5.37,5.24,40.39,40.39,0,0,1,4.39,6.06,46.2,46.2,0,0,1,3.37,7,42.09,42.09,0,0,1,2.14,8.06,57.22,57.22,0,0,1,.71,9.22,49.56,49.56,0,0,1-1,10.27,47,47,0,0,1-8.3,18.26,49.31,49.31,0,0,1-7,7.52,53,53,0,0,1-8.71,6.19,63.06,63.06,0,0,1-10.34,4.69,66.18,66.18,0,0,1-11.9,3A86.75,86.75,0,0,1,1628.58,299.48Z" style="fill:#232a30"/><path d="M1628.58,303.9a94.7,94.7,0,0,1-19-1.87,86,86,0,0,1-17.61-5.58,92.79,92.79,0,0,1-15.72-8.79,88.64,88.64,0,0,1-13.45-11.52,4.4,4.4,0,0,1-.15-5.94l6.8-7.9,6.8-7.89a4.5,4.5,0,0,1,1.46-1.11,4.43,4.43,0,0,1,1.79-.42,4.58,4.58,0,0,1,1.8.34,4.53,4.53,0,0,1,1.52,1,69.13,69.13,0,0,0,9.76,8.54,73.25,73.25,0,0,0,11.36,6.7,59.5,59.5,0,0,0,12.24,4.26,56.91,56.91,0,0,0,12.67,1.43,52.21,52.21,0,0,0,14.21-1.76,28.9,28.9,0,0,0,10.47-5.26,22,22,0,0,0,6.15-7.76,23.37,23.37,0,0,0,2-9.91,28.06,28.06,0,0,0-.47-5.29,17.54,17.54,0,0,0-1.4-4.34,20.57,20.57,0,0,0-2.25-3.65,20.87,20.87,0,0,0-2.92-3.1,37.62,37.62,0,0,0-3.88-2.89,47.54,47.54,0,0,0-4.59-2.62l-5.61-2.77q-2.91-1.43-6-2.91l-12.72-5.54-12.72-5.55c-2.14-.93-4.33-2-6.54-3.09s-4.46-2.36-6.71-3.67a57.53,57.53,0,0,1-12.68-10,46.24,46.24,0,0,1-5.16-6.55,51.26,51.26,0,0,1-4.12-7.65,42.41,42.41,0,0,1-2.72-8.93,54.57,54.57,0,0,1-.91-10.12,48.62,48.62,0,0,1,1.17-10.71,45.9,45.9,0,0,1,3.49-10,50.27,50.27,0,0,1,5.52-8.9,51.52,51.52,0,0,1,7.29-7.64,55.67,55.67,0,0,1,8.84-6.15,62.92,62.92,0,0,1,10.27-4.59,67,67,0,0,1,11.43-2.84,82.38,82.38,0,0,1,28.83.69,73.08,73.08,0,0,1,15.11,4.88,84.3,84.3,0,0,1,13.3,7.45,74.94,74.94,0,0,1,11.18,9.41,4.43,4.43,0,0,1,.23,5.92l-6.12,7.35-6.13,7.34a4.27,4.27,0,0,1-1.41,1.13,4.37,4.37,0,0,1-1.75.46,4.39,4.39,0,0,1-3.31-1.24,61.74,61.74,0,0,0-8-6.55,57.77,57.77,0,0,0-8.82-5,44.93,44.93,0,0,0-9.69-3.06,55.74,55.74,0,0,0-10.94-1,44.52,44.52,0,0,0-12.08,1.51,27.57,27.57,0,0,0-9.31,4.52,18,18,0,0,0-5.55,6.71,20.8,20.8,0,0,0-1.83,8.95,21.7,21.7,0,0,0,.51,4.88,14,14,0,0,0,1.49,3.93,22,22,0,0,0,2.53,3.53,25.63,25.63,0,0,0,3.3,3.09,53.34,53.34,0,0,0,8.77,5.51c1.65.83,3.34,1.63,5.05,2.4s3.47,1.51,5.23,2.21l12.7,5.46,12.71,5.47c2.62,1.12,5.2,2.34,7.71,3.64s4.94,2.69,7.29,4.15a59.92,59.92,0,0,1,6.86,4.94,53.25,53.25,0,0,1,5.83,5.69,46,46,0,0,1,4.86,6.69,49.87,49.87,0,0,1,3.71,7.71,46.72,46.72,0,0,1,2.36,8.84,61.58,61.58,0,0,1,.79,10,53.9,53.9,0,0,1-1.16,11.21,50.79,50.79,0,0,1-3.46,10.49,51.9,51.9,0,0,1-5.61,9.47,54.36,54.36,0,0,1-7.6,8.2,57.9,57.9,0,0,1-9.4,6.69,67.58,67.58,0,0,1-11.09,5,70.29,70.29,0,0,1-12.65,3.15A91.4,91.4,0,0,1,1628.58,303.9Zm-56.54-31a81,81,0,0,0,11,8.68,85.28,85.28,0,0,0,12.53,6.81,77.18,77.18,0,0,0,15.87,5,86.3,86.3,0,0,0,17.18,1.68,83.59,83.59,0,0,0,12.64-.92,62.93,62.93,0,0,0,11.19-2.77A58.37,58.37,0,0,0,1662,287a48.72,48.72,0,0,0,8-5.69,45.29,45.29,0,0,0,6.33-6.84,42.18,42.18,0,0,0,4.67-7.87,41.55,41.55,0,0,0,2.86-8.69,44.81,44.81,0,0,0,1-9.33,52,52,0,0,0-.65-8.41,37.35,37.35,0,0,0-1.92-7.29,40.69,40.69,0,0,0-3-6.3,35.87,35.87,0,0,0-3.92-5.42,44.48,44.48,0,0,0-4.91-4.78,51,51,0,0,0-5.8-4.17c-2.17-1.34-4.41-2.62-6.72-3.82s-4.69-2.32-7.11-3.36l-12.66-5.44-12.65-5.44q-2.74-1.09-5.48-2.33c-1.81-.81-3.61-1.67-5.37-2.55a60.4,60.4,0,0,1-5.35-3,56.49,56.49,0,0,1-4.91-3.44,34,34,0,0,1-4.53-4.26,30.59,30.59,0,0,1-3.52-4.91,22.79,22.79,0,0,1-2.38-6.06,30.77,30.77,0,0,1-.79-7.17,29.62,29.62,0,0,1,2.72-12.89,26.82,26.82,0,0,1,8.14-9.81,36.08,36.08,0,0,1,11.84-5.87,53,53,0,0,1,14.91-2,65.26,65.26,0,0,1,12.8,1.22,53.37,53.37,0,0,1,11.47,3.66,67,67,0,0,1,8.21,4.43,69.29,69.29,0,0,1,7.61,5.61l3.34-4,3.33-4a68.49,68.49,0,0,0-8.78-6.71,76,76,0,0,0-10.14-5.49,63.3,63.3,0,0,0-13.33-4.3,72.42,72.42,0,0,0-14.51-1.44,71,71,0,0,0-11,.83,58.25,58.25,0,0,0-10,2.47,53.74,53.74,0,0,0-8.77,3.91,46.17,46.17,0,0,0-7.49,5.2,42.38,42.38,0,0,0-6,6.32,41.76,41.76,0,0,0-4.56,7.35,37.11,37.11,0,0,0-2.82,8.11,39.86,39.86,0,0,0-.95,8.73,44.7,44.7,0,0,0,.73,8.31,33,33,0,0,0,2.17,7.2,42.9,42.9,0,0,0,3.37,6.3,37.75,37.75,0,0,0,4.21,5.35,48.21,48.21,0,0,0,10.72,8.47c2.1,1.23,4.19,2.37,6.25,3.42s4.08,2,6.07,2.88l12.8,5.58,12.79,5.57,6.21,3c2,1,3.87,1.9,5.69,2.81a57.33,57.33,0,0,1,5.54,3.17,47.18,47.18,0,0,1,4.76,3.56,29.89,29.89,0,0,1,7.35,9.58,26.06,26.06,0,0,1,2.07,6.23,36.33,36.33,0,0,1,.69,7.27,32,32,0,0,1-2.87,13.7,30.49,30.49,0,0,1-8.55,10.81,37,37,0,0,1-13.09,6.76,60.09,60.09,0,0,1-17.19,2.27,65.84,65.84,0,0,1-14.61-1.64,68.27,68.27,0,0,1-14.08-4.91,80.89,80.89,0,0,1-10.76-6.12,78,78,0,0,1-9.54-7.58l-3.91,4.53Z" style="fill:#232a30"/><path d="M1760.81,299.48a46.8,46.8,0,0,1-18.33-3.27,29.6,29.6,0,0,1-12.55-9.79,45.54,45.54,0,0,1-7.25-16.19,93.14,93.14,0,0,1-2.41-22.45V164h22.58v80.81a77.76,77.76,0,0,0,1.46,16.15,29.77,29.77,0,0,0,4.39,10.92,18.09,18.09,0,0,0,7.65,6.23,28,28,0,0,0,11.26,2.07,34.46,34.46,0,0,0,9.73-1.33,30.15,30.15,0,0,0,8.5-4,59.62,59.62,0,0,0,8.3-6.9,119.22,119.22,0,0,0,9.11-10.1V164h22.32V296.21h-18.51l-1-10.34-.95-10.34h-.82a98.54,98.54,0,0,1-9.49,9.8,78.45,78.45,0,0,1-10,7.62,40.11,40.11,0,0,1-11.12,4.9A49.73,49.73,0,0,1,1760.81,299.48Z" style="fill:#232a30"/><path d="M1760.81,303.9a51.08,51.08,0,0,1-20.32-3.73,33.88,33.88,0,0,1-14.12-11.12,49.74,49.74,0,0,1-7.88-17.45,96.78,96.78,0,0,1-2.65-23.82V164a4.44,4.44,0,0,1,4.43-4.43h22.58a4.44,4.44,0,0,1,4.43,4.43v80.81a75,75,0,0,0,1.26,14.81,25.77,25.77,0,0,0,3.78,9.71,13.69,13.69,0,0,0,6.07,4.83,23.69,23.69,0,0,0,9.22,1.59,30.38,30.38,0,0,0,8.44-1.12,26,26,0,0,0,7.32-3.43,54.46,54.46,0,0,0,7.33-6.07,107.81,107.81,0,0,0,8.13-8.85V164a4.44,4.44,0,0,1,4.42-4.43h22.32A4.44,4.44,0,0,1,1830,164V296.21a4.44,4.44,0,0,1-4.42,4.43h-18.51a4.42,4.42,0,0,1-3-1.16,4.37,4.37,0,0,1-1.42-2.86l-.54-5.79-.53-5.79a91.67,91.67,0,0,1-7,6.36,79.06,79.06,0,0,1-7.28,5.27,44.19,44.19,0,0,1-12.26,5.42A54.1,54.1,0,0,1,1760.81,303.9Zm-36.12-135.5v79.38a89.43,89.43,0,0,0,2.21,21,41.72,41.72,0,0,0,6.58,15,25.36,25.36,0,0,0,11,8.47,42.74,42.74,0,0,0,16.35,2.79,45.2,45.2,0,0,0,11.71-1.46,35.53,35.53,0,0,0,10-4.37,73.2,73.2,0,0,0,9.44-7.23,95.52,95.52,0,0,0,9-9.32,4.26,4.26,0,0,1,1.52-1.15,4.31,4.31,0,0,1,1.85-.41h.82a4.42,4.42,0,0,1,3,1.16,4.37,4.37,0,0,1,1.42,2.86l.77,8.33.77,8.33h10V168.4h-13.46v89.45a4.35,4.35,0,0,1-.26,1.48,4.23,4.23,0,0,1-.73,1.31,123.54,123.54,0,0,1-9.57,10.59,63.06,63.06,0,0,1-8.81,7.29,34.54,34.54,0,0,1-9.68,4.54,39.18,39.18,0,0,1-11,1.52,32.11,32.11,0,0,1-13.3-2.55,22.45,22.45,0,0,1-9.23-7.62,33.43,33.43,0,0,1-5-12.1,80.34,80.34,0,0,1-1.65-17.52V168.4h-13.74Z" style="fill:#232a30"/><path d="M1881.61,136.77a17.25,17.25,0,0,1-6-1,15.37,15.37,0,0,1-5-3.06,13.44,13.44,0,0,1-3.36-4.62,14.21,14.21,0,0,1-1.13-5.72,14.72,14.72,0,0,1,1.13-5.88,12.63,12.63,0,0,1,3.36-4.59,15.25,15.25,0,0,1,5-3,18.8,18.8,0,0,1,12,0,15.05,15.05,0,0,1,5,3,12.66,12.66,0,0,1,3.37,4.59,14.72,14.72,0,0,1,1.12,5.88,14.2,14.2,0,0,1-1.12,5.72,13.47,13.47,0,0,1-3.37,4.62,15.16,15.16,0,0,1-5,3.06A17.17,17.17,0,0,1,1881.61,136.77Zm-11.43,159.44V164h22.32V296.21h-22.32Z" style="fill:#232a30"/><path d="M1892.5,300.64h-22.32a4.44,4.44,0,0,1-4.42-4.43V164a4.44,4.44,0,0,1,4.42-4.43h22.32a4.44,4.44,0,0,1,4.42,4.43V296.21a4.44,4.44,0,0,1-4.42,4.43Zm-17.89-8.85h13.46V168.4h-13.46V291.79Zm7-150.59a21.42,21.42,0,0,1-7.61-1.32,19.66,19.66,0,0,1-6.38-3.91,18,18,0,0,1-4.45-6.11,18.65,18.65,0,0,1-1.49-7.51,19.21,19.21,0,0,1,1.5-7.71,17.2,17.2,0,0,1,4.49-6.09,20,20,0,0,1,6.36-3.78,23.43,23.43,0,0,1,15.16,0,19.91,19.91,0,0,1,6.36,3.78,17.2,17.2,0,0,1,4.49,6.09,19.21,19.21,0,0,1,1.51,7.71,18.48,18.48,0,0,1-1.5,7.51,17.85,17.85,0,0,1-4.44,6.1,19.52,19.52,0,0,1-6.38,3.92A21.48,21.48,0,0,1,1881.61,141.2Zm0-28.85a13.46,13.46,0,0,0-4.46.71,10.93,10.93,0,0,0-3.64,2.14,8.32,8.32,0,0,0-2.25,3.09,10.47,10.47,0,0,0-.73,4.06,9.84,9.84,0,0,0,.74,3.93,9.12,9.12,0,0,0,2.3,3.14,10.9,10.9,0,0,0,3.62,2.2,13.78,13.78,0,0,0,8.85,0,11.11,11.11,0,0,0,3.62-2.2,9.22,9.22,0,0,0,2.29-3.14,9.67,9.67,0,0,0,.75-3.93,10.47,10.47,0,0,0-.73-4.06,8.27,8.27,0,0,0-2.26-3.09,10.93,10.93,0,0,0-3.64-2.14A13.37,13.37,0,0,0,1881.61,112.35Z" style="fill:#232a30"/><path d="M1978.74,299.48a53.78,53.78,0,0,1-9.76-.82,34.27,34.27,0,0,1-8.06-2.45,33.12,33.12,0,0,1-6.53-3.88,28.7,28.7,0,0,1-5.17-5.1,31.51,31.51,0,0,1-3.84-6.32,38.93,38.93,0,0,1-2.55-7.55,69.93,69.93,0,0,1-1.43-8.57,88.56,88.56,0,0,1-.48-9.39V182.21h-19.59V165.34l10.34-.68L1942,164l1.36-18.5,1.36-18.5h18.78v37h35.64v18.23h-35.64v73.46a47.13,47.13,0,0,0,1.12,10.85,24.35,24.35,0,0,0,3.37,8.06,13.57,13.57,0,0,0,6.22,5,25.08,25.08,0,0,0,9.69,1.67,26.27,26.27,0,0,0,3.68-.27,36.46,36.46,0,0,0,3.94-.82c1.36-.36,2.65-.75,3.88-1.15s2.38-.84,3.47-1.3l2.17,8.44,2.18,8.43c-1.81.64-3.71,1.24-5.68,1.8s-4,1.1-6.15,1.6a57.89,57.89,0,0,1-6.37,1.12A53.22,53.22,0,0,1,1978.74,299.48Z" style="fill:#232a30"/><path d="M1978.74,303.9a58.57,58.57,0,0,1-10.69-.92,38.44,38.44,0,0,1-9-2.74,37.33,37.33,0,0,1-7.44-4.43,33.41,33.41,0,0,1-5.92-5.84,36.67,36.67,0,0,1-4.35-7.15,43.38,43.38,0,0,1-2.87-8.46,73.31,73.31,0,0,1-1.51-9.07,92.66,92.66,0,0,1-.51-9.89V186.63h-15.17a4.4,4.4,0,0,1-4.42-4.42V165.34a4.41,4.41,0,0,1,4.13-4.41l8.42-.56,8.42-.55,1.22-16.59,1.22-16.58a4.44,4.44,0,0,1,4.41-4.1h18.78a4.42,4.42,0,0,1,4.42,4.43v32.57h31.22a4.42,4.42,0,0,1,4.42,4.43v18.23a4.4,4.4,0,0,1-4.42,4.42h-31.22v69a43.61,43.61,0,0,0,.94,9.55,20.2,20.2,0,0,0,2.8,6.89,9.48,9.48,0,0,0,4.63,3.55,21.37,21.37,0,0,0,7.61,1.16,22.66,22.66,0,0,0,3.1-.23,28.8,28.8,0,0,0,3.38-.71c1.26-.33,2.46-.69,3.59-1.06s2.2-.78,3.19-1.19a4.44,4.44,0,0,1,3.68.12,4.56,4.56,0,0,1,1.47,1.18,4.36,4.36,0,0,1,.84,1.68l2.18,8.43,2.18,8.43a4.45,4.45,0,0,1-.39,3.2,4.4,4.4,0,0,1-2.44,2.09q-2.81,1-5.89,1.86c-2,.59-4.19,1.15-6.39,1.67a64,64,0,0,1-6.88,1.21A57.77,57.77,0,0,1,1978.74,303.9Zm-53-126.12h15.16a4.44,4.44,0,0,1,4.43,4.43V255.4a84.42,84.42,0,0,0,.45,8.88,65,65,0,0,0,1.34,8.07,34.51,34.51,0,0,0,2.23,6.64,27.19,27.19,0,0,0,3.33,5.51,24.68,24.68,0,0,0,4.43,4.35,28.25,28.25,0,0,0,5.62,3.33,30.34,30.34,0,0,0,7.17,2.15,50.06,50.06,0,0,0,8.82.72,49.09,49.09,0,0,0,5.78-.34,52.75,52.75,0,0,0,5.87-1c1.31-.31,2.6-.63,3.86-1s2.47-.69,3.66-1l-1.05-4.07-1-4.06-1.55.46-1.59.45a37.24,37.24,0,0,1-4.51.92,29.86,29.86,0,0,1-4.25.31,29.19,29.19,0,0,1-11.78-2.16,17.86,17.86,0,0,1-7.8-6.46,28.68,28.68,0,0,1-3.93-9.24,51,51,0,0,1-1.32-12.14V182.21a4.44,4.44,0,0,1,4.43-4.43h31.22V168.4h-31.22a4.42,4.42,0,0,1-4.43-4.42V131.4h-10.24l-1.21,16.45-1.21,16.45a4.4,4.4,0,0,1-4.12,4.09l-8.27.55-8.27.54v8.3Z" style="fill:#232a30"/><path d="M2078.87,299.48a68.82,68.82,0,0,1-12.89-1.19,62.87,62.87,0,0,1-12-3.57,60.84,60.84,0,0,1-10.82-5.78,58.8,58.8,0,0,1-9.32-7.83,58.08,58.08,0,0,1-7.65-9.83,69.65,69.65,0,0,1-5.82-11.8,71.55,71.55,0,0,1-3.67-13.67,93.74,93.74,0,0,1-1.22-15.44,92.27,92.27,0,0,1,1.25-15.48,71.09,71.09,0,0,1,3.78-13.77,76.12,76.12,0,0,1,5.85-11.94,62.6,62.6,0,0,1,7.48-10,60.5,60.5,0,0,1,8.88-7.93,55.45,55.45,0,0,1,10-5.81,54,54,0,0,1,10.82-3.57,52.53,52.53,0,0,1,11.22-1.2,62.73,62.73,0,0,1,11.87,1.09,50.31,50.31,0,0,1,10.58,3.27,45.24,45.24,0,0,1,9.11,5.3,43.65,43.65,0,0,1,7.49,7.21,52.68,52.68,0,0,1,5.88,9,63.94,63.94,0,0,1,4.32,10.61,76.26,76.26,0,0,1,2.65,12.11,98.3,98.3,0,0,1,.89,13.47c0,1.18,0,2.35,0,3.5s-.06,2.31-.1,3.44-.13,2.19-.24,3.16a26.07,26.07,0,0,1-.44,2.69h-89.24a62.7,62.7,0,0,0,4,19,44.42,44.42,0,0,0,9.22,14.59,38.62,38.62,0,0,0,13.64,9.29,46,46,0,0,0,17.24,3.09,57.52,57.52,0,0,0,9.15-.71,48.3,48.3,0,0,0,8.4-2.15,75,75,0,0,0,7.86-3.3,78.23,78.23,0,0,0,7.52-4.18l3.94,7.35,3.95,7.34a104.86,104.86,0,0,1-9.19,5.11q-4.83,2.37-10.13,4.42a59,59,0,0,1-11.36,3.06A77.41,77.41,0,0,1,2078.87,299.48Zm-41.63-80H2108a65.81,65.81,0,0,0-2.15-17.71,35,35,0,0,0-6.43-12.9,27.18,27.18,0,0,0-10.3-7.85,34.16,34.16,0,0,0-13.77-2.62,35.05,35.05,0,0,0-6.91.68,33.22,33.22,0,0,0-6.56,2,33.88,33.88,0,0,0-6.09,3.37,37.81,37.81,0,0,0-5.48,4.66,41,41,0,0,0-4.73,5.88,50.17,50.17,0,0,0-3.84,7,52.19,52.19,0,0,0-2.82,8.16A66.09,66.09,0,0,0,2037.24,219.48Z" style="fill:#232a30"/><path d="M2078.87,303.9a73,73,0,0,1-13.74-1.28,66.67,66.67,0,0,1-12.84-3.81,65.12,65.12,0,0,1-11.6-6.21,63,63,0,0,1-18.23-18.94,72.77,72.77,0,0,1-6.22-12.6,75,75,0,0,1-3.88-14.45,97.12,97.12,0,0,1-1.31-16.24,95.67,95.67,0,0,1,1.34-16.29,75.3,75.3,0,0,1,4-14.57,80.19,80.19,0,0,1,6.22-12.67,67.07,67.07,0,0,1,8-10.63,65.26,65.26,0,0,1,9.55-8.51,61,61,0,0,1,10.8-6.26,58.84,58.84,0,0,1,11.71-3.86,57.41,57.41,0,0,1,12.14-1.29,66.62,66.62,0,0,1,12.77,1.19A54.48,54.48,0,0,1,2099,161a49.88,49.88,0,0,1,10,5.84,47.92,47.92,0,0,1,8.24,7.93,56.65,56.65,0,0,1,6.35,9.69,67.7,67.7,0,0,1,4.65,11.39,80.52,80.52,0,0,1,2.8,12.77,101.76,101.76,0,0,1,.94,14.12c0,1.19,0,2.38,0,3.56s-.06,2.38-.11,3.55-.14,2.47-.27,3.57a31,31,0,0,1-.51,3.06,4.41,4.41,0,0,1-4.32,3.47h-84.37a53.56,53.56,0,0,0,3.95,14.68,39.51,39.51,0,0,0,7.57,11.44,34,34,0,0,0,12.17,8.29,41.71,41.71,0,0,0,15.51,2.72,52,52,0,0,0,8.4-.65,42.86,42.86,0,0,0,7.67-1.95,70.54,70.54,0,0,0,7.42-3.11,76.69,76.69,0,0,0,7.08-3.94,4.34,4.34,0,0,1,1.69-.63,4.51,4.51,0,0,1,1.79.09,4.4,4.4,0,0,1,2.77,2.19l4,7.34,3.94,7.35a4.37,4.37,0,0,1,.38,3.23,4.42,4.42,0,0,1-1.93,2.62,107.44,107.44,0,0,1-9.56,5.3q-5,2.49-10.51,4.6a63.48,63.48,0,0,1-12.15,3.27A81.81,81.81,0,0,1,2078.87,303.9Zm-4.08-138.76a48.68,48.68,0,0,0-10.29,1.1,50.29,50.29,0,0,0-9.94,3.27,52.4,52.4,0,0,0-9.26,5.38,56.43,56.43,0,0,0-8.21,7.33,58,58,0,0,0-7,9.31,71.39,71.39,0,0,0-5.49,11.19,66.71,66.71,0,0,0-3.54,13,87,87,0,0,0-1.19,14.66,88.7,88.7,0,0,0,1.16,14.63,66.78,66.78,0,0,0,3.45,12.9,63.23,63.23,0,0,0,5.42,11,53.81,53.81,0,0,0,15.72,16.37,55.78,55.78,0,0,0,10,5.35,57.77,57.77,0,0,0,11.19,3.32,64,64,0,0,0,12,1.11,73.4,73.4,0,0,0,12.05-.95,54.82,54.82,0,0,0,10.58-2.83c2.68-1,5.28-2.14,7.78-3.31s4.92-2.42,7.22-3.72l-1.85-3.45-1.85-3.46q-2.94,1.64-6,3c-2,.91-4.09,1.75-6.18,2.49a53,53,0,0,1-9.14,2.33,61.27,61.27,0,0,1-9.9.78,50.27,50.27,0,0,1-19-3.45,42.92,42.92,0,0,1-15.1-10.3,48.7,48.7,0,0,1-10.06-15.87,66.88,66.88,0,0,1-4.35-20.5,4.4,4.4,0,0,1,1.19-3.31,4.55,4.55,0,0,1,1.47-1,4.37,4.37,0,0,1,1.76-.37h85.4l.06-.78c0-.27,0-.55,0-.82,0-1.12.08-2.24.1-3.37s0-2.26,0-3.39a93.72,93.72,0,0,0-.84-12.8,72.15,72.15,0,0,0-2.5-11.47,59.27,59.27,0,0,0-4-9.82,48.63,48.63,0,0,0-5.41-8.28,39,39,0,0,0-6.74-6.48,40.92,40.92,0,0,0-8.21-4.78,45.46,45.46,0,0,0-9.72-3A57.46,57.46,0,0,0,2074.79,165.14Zm33.2,58.77h-70.75a4.25,4.25,0,0,1-1.8-.39,4.39,4.39,0,0,1-1.49-1.08,4.47,4.47,0,0,1-.92-1.61,4.34,4.34,0,0,1-.18-1.83,69.85,69.85,0,0,1,1.79-9.92,56,56,0,0,1,3-8.81,52.75,52.75,0,0,1,4.23-7.72,44.07,44.07,0,0,1,5.21-6.49,42.34,42.34,0,0,1,6.14-5.22,39.34,39.34,0,0,1,6.86-3.79,38.37,38.37,0,0,1,7.42-2.3A41,41,0,0,1,2091,177a31.62,31.62,0,0,1,11.84,9.06,39.36,39.36,0,0,1,7.17,14.22,69.83,69.83,0,0,1,2.4,19.19,4.44,4.44,0,0,1-4.42,4.43Zm-65.62-8.85h61.07a53.79,53.79,0,0,0-2.28-13.48,29.68,29.68,0,0,0-5.17-9.9,22.85,22.85,0,0,0-8.77-6.66,30.41,30.41,0,0,0-28.94,3.12,33.51,33.51,0,0,0-4.81,4.09,36.61,36.61,0,0,0-4.23,5.29,44.14,44.14,0,0,0-3.47,6.35,47.62,47.62,0,0,0-2,5.32A53,53,0,0,0,2042.37,215.06Z" style="fill:#232a30"/></svg>